<?xml version="1.0" standalone="no"?>
<!DOCTYPE svg PUBLIC "-//W3C//DTD SVG 20010904//EN"
 "http://www.w3.org/TR/2001/REC-SVG-20010904/DTD/svg10.dtd">
<svg version="1.0" xmlns="http://www.w3.org/2000/svg"
 width="1000.000000pt" height="1000.000000pt" viewBox="0 0 1000.000000 1000.000000"
 preserveAspectRatio="xMidYMid meet">
<metadata>
Created by potrace 1.11, written by Peter Selinger 2001-2013
</metadata>
<g transform="translate(0.000000,1000.000000) scale(0.100000,-0.100000)"
fill="#000000" stroke="none">
<path d="M2226 9528 c2 -4 0 -10 -6 -13 -8 -5 -7 -11 1 -21 12 -15 0 -19 -17
-6 -5 4 -1 0 8 -10 10 -9 18 -21 18 -28 0 -6 5 -10 12 -8 16 6 23 29 7 26 -7
-2 -13 8 -14 23 -1 15 3 26 11 26 10 0 11 -4 3 -13 -7 -9 -4 -17 13 -28 13 -9
22 -19 21 -21 -2 -3 -3 -10 -3 -17 0 -20 13 1 16 26 2 17 -2 23 -11 20 -17 -7
-24 6 -15 30 6 17 7 18 13 3 4 -10 2 -17 -5 -17 -6 0 -9 -2 -6 -5 9 -9 37 6
34 18 -1 7 -1 9 1 5 3 -5 9 -8 14 -8 6 0 7 5 3 12 -4 7 -3 8 5 4 6 -4 9 -12 6
-17 -4 -5 -2 -9 4 -9 5 0 13 5 16 10 4 6 11 8 16 5 5 -4 6 2 2 11 -4 11 -8 13
-11 6 -2 -7 -9 -9 -15 -5 -15 9 -126 10 -121 1z"/>
<path d="M2384 9524 c6 -15 -20 -52 -30 -41 -4 4 -2 7 4 7 7 0 12 5 12 11 0 8
-5 7 -15 -1 -9 -7 -13 -20 -10 -28 3 -8 0 -21 -6 -28 -7 -8 -7 -14 -1 -14 12
0 33 25 26 32 -2 3 1 8 9 11 8 3 14 -1 14 -9 0 -8 -3 -14 -7 -14 -10 0 -8 -33
3 -47 13 -18 -1 -16 -19 2 -18 18 -35 20 -31 4 1 -6 -8 -13 -20 -15 -15 -3
-23 1 -23 11 0 8 5 15 11 15 5 0 7 -5 3 -12 -4 -7 -3 -8 5 -4 6 4 9 11 6 16
-3 5 0 12 6 16 8 4 7 9 -2 16 -11 7 -11 11 -1 15 14 6 16 33 2 33 -5 0 -11 -8
-12 -17 0 -10 -2 -23 -2 -30 -1 -7 -7 -18 -13 -24 -10 -10 -14 -9 -18 3 -6 14
-10 14 -36 1 -16 -8 -29 -19 -29 -24 0 -6 -5 -7 -12 -3 -7 5 -8 3 -3 -6 6 -10
11 -9 22 5 7 11 13 13 13 7 0 -7 5 -12 11 -12 5 0 8 4 4 9 -9 15 15 25 28 12
9 -9 8 -11 -6 -5 -12 4 -17 2 -15 -6 4 -17 -50 -32 -73 -20 -22 12 -32 13 -25
1 4 -5 -3 -7 -14 -4 -11 3 -17 10 -14 17 3 6 -2 2 -11 -9 -15 -19 -16 -19 -13
4 2 15 -3 25 -13 26 -9 2 -16 -3 -16 -11 0 -11 3 -11 16 -1 12 10 14 9 8 -6
-4 -10 -7 -20 -7 -21 0 -2 -40 -2 -90 0 -52 1 -90 -2 -90 -8 0 -5 -4 -7 -9 -3
-6 3 -15 -3 -21 -12 -9 -15 -10 -14 -4 7 5 19 3 22 -6 14 -7 -7 -24 -9 -45 -4
-18 4 -39 4 -46 -1 -7 -4 -16 -6 -19 -4 -4 2 -7 -2 -7 -10 0 -8 4 -15 8 -15 3
0 9 -11 11 -25 3 -15 1 -22 -5 -18 -6 4 -8 0 -4 -11 4 -10 3 -15 -3 -11 -6 3
-10 2 -10 -4 0 -5 4 -11 9 -13 20 -7 15 -30 -7 -34 -13 -2 -21 0 -18 4 3 5 -1
9 -9 9 -8 0 -12 -4 -9 -9 3 -4 -6 -8 -20 -8 -13 0 -27 6 -29 13 -4 10 -6 10
-6 0 -1 -10 -28 -13 -100 -13 -79 0 -100 -3 -105 -15 -3 -8 0 -15 6 -15 7 0 7
-4 1 -12 -5 -7 -8 -26 -6 -43 7 -67 2 -72 -86 -70 -54 1 -78 -1 -74 -8 10 -16
10 -58 0 -64 -4 -2 -3 -11 3 -18 7 -9 7 -15 1 -19 -5 -4 -8 -15 -6 -25 3 -17
-3 -19 -58 -18 -42 1 -66 7 -75 17 -10 13 -11 13 -6 -2 3 -10 2 -18 -4 -18 -5
0 -7 -12 -4 -26 3 -16 -1 -30 -9 -35 -10 -6 -10 -9 -2 -9 8 0 12 -14 10 -40
l-2 -40 -75 0 c-71 0 -76 -1 -78 -22 -5 -34 -5 -42 -2 -53 1 -5 2 -27 1 -49
-1 -35 -3 -37 -18 -25 -9 8 -14 9 -10 2 5 -8 -11 -11 -58 -9 l-65 1 0 -77 c0
-55 -4 -78 -12 -79 -7 -1 -26 -2 -41 -2 -19 -1 -26 -5 -22 -15 3 -8 0 -10 -7
-6 -8 5 -9 2 -5 -9 9 -24 0 -21 -14 4 -8 15 -8 19 0 15 6 -4 11 -2 11 3 0 12
-23 15 -33 4 -4 -3 -1 -13 6 -21 8 -11 8 -14 0 -9 -6 4 -14 1 -17 -5 -3 -7 -3
-1 -1 15 2 15 -1 27 -6 27 -5 0 -9 -22 -9 -50 0 -43 3 -51 28 -65 15 -9 18
-13 7 -10 -11 4 -27 9 -35 12 -11 3 -10 1 3 -10 17 -14 24 -33 9 -23 -4 2 -14
-4 -21 -16 -7 -11 -8 -17 -3 -14 5 3 9 -7 8 -24 0 -17 -5 -30 -11 -30 -5 0 -4
-4 3 -8 7 -5 10 -19 8 -33 -3 -13 -5 -27 -5 -31 -1 -5 -7 -8 -15 -8 -8 0 -17
-6 -19 -12 -4 -10 -6 -10 -6 0 -1 6 -10 12 -22 12 -13 0 -18 -4 -13 -12 4 -7
-2 -4 -14 6 -14 12 -22 14 -22 7 0 -7 -7 -10 -18 -7 -15 5 -18 0 -17 -32 0
-21 8 -50 18 -65 22 -35 22 -45 -1 -17 -15 18 -19 20 -19 7 0 -10 4 -17 9 -17
4 0 8 -5 8 -11 0 -5 -4 -8 -9 -4 -6 3 -10 -18 -9 -52 1 -151 -5 -292 -13 -287
-5 3 -9 0 -9 -7 0 -8 -4 -8 -15 1 -8 7 -12 16 -9 21 3 5 0 9 -6 9 -7 0 -9 -7
-6 -16 4 -10 2 -13 -6 -8 -7 5 -8 3 -3 -6 5 -8 4 -11 -3 -6 -6 4 -9 13 -5 21
3 8 0 15 -7 15 -6 0 -8 -4 -5 -10 3 -5 2 -10 -4 -10 -5 0 -11 6 -14 13 -3 9
-7 9 -20 -2 -14 -11 -17 -11 -17 -1 0 8 -3 10 -7 7 -3 -4 2 -16 11 -26 10 -11
15 -24 12 -30 -4 -5 -2 -12 4 -16 5 -3 10 -11 10 -17 0 -6 -6 -6 -15 2 -9 7
-14 19 -11 26 3 7 1 16 -4 19 -6 3 -8 -16 -6 -47 2 -29 -1 -61 -6 -70 -6 -12
-5 -18 2 -18 6 0 9 -4 5 -9 -3 -5 3 -12 12 -14 16 -4 16 -5 1 -6 -15 -1 -17
-16 -16 -150 0 -82 -3 -154 -7 -161 -4 -6 -3 -16 2 -23 10 -15 10 -38 0 -54
-5 -7 -5 -13 0 -13 7 0 7 -58 0 -120 -2 -14 -1 -29 2 -35 10 -18 7 -160 -4
-168 -5 -5 1 -6 15 -2 21 5 22 4 8 -5 -24 -15 -24 -52 -1 -43 12 5 13 8 4 11
-8 3 -5 9 9 19 18 12 19 17 8 31 -11 14 -9 14 8 0 24 -21 38 -23 28 -5 -4 6
-4 9 1 5 4 -4 15 -2 24 5 9 7 7 2 -4 -15 -16 -21 -23 -24 -34 -15 -12 10 -14
9 -8 -5 4 -11 2 -15 -7 -12 -7 3 -13 -2 -13 -11 0 -18 3 -18 26 -6 13 7 17 5
17 -9 0 -13 -4 -16 -12 -9 -8 7 -11 2 -11 -16 0 -19 3 -23 12 -15 9 8 14 6 19
-5 8 -21 -4 -46 -18 -38 -6 3 -3 -3 7 -14 17 -19 16 -20 -12 -20 -28 0 -28 2
-15 22 12 18 12 24 -2 44 -23 32 -39 21 -40 -27 -1 -30 4 -48 20 -65 11 -12
21 -29 21 -37 0 -17 -21 -34 -33 -26 -4 2 -9 -4 -9 -15 -2 -17 0 -18 13 -4 17
16 39 21 29 6 -3 -6 3 -15 14 -21 14 -7 22 -7 26 0 5 8 12 7 23 -2 15 -11 15
-11 5 3 -7 9 -10 19 -6 23 4 4 12 -3 18 -14 9 -17 11 -14 10 24 0 24 -4 42 -8
39 -5 -3 -6 -12 -3 -20 5 -11 2 -13 -10 -9 -8 3 -20 6 -25 6 -6 0 -7 5 -4 10
4 6 10 8 15 5 13 -8 20 21 7 34 -14 14 4 15 21 1 9 -7 9 -7 2 2 -14 16 -13 25
3 25 14 0 15 -13 17 -330 1 -86 4 -125 12 -121 6 4 6 -1 -1 -14 -14 -27 -14
-35 2 -26 9 6 9 5 0 -7 -14 -17 -13 -59 0 -59 5 0 4 -7 -3 -15 -10 -12 -10
-15 0 -15 10 0 10 -3 0 -15 -10 -12 -10 -15 0 -15 9 0 9 -4 -1 -17 -8 -9 -9
-14 -3 -10 7 4 15 0 18 -9 3 -8 2 -12 -3 -9 -5 3 -12 1 -15 -4 -4 -5 -2 -12 4
-16 7 -4 7 -13 0 -26 -8 -15 -7 -23 5 -35 8 -8 15 -12 15 -7 0 5 26 8 58 7 77
-2 79 -3 62 -14 -8 -5 -10 -10 -5 -10 7 0 11 -51 10 -145 0 -133 1 -145 18
-145 10 0 16 4 13 8 -3 5 1 9 9 9 7 0 12 -8 10 -19 -2 -10 0 -18 6 -18 5 0 9
6 9 13 0 8 9 13 22 11 13 -1 34 -3 47 -3 23 -1 24 -2 6 -14 -14 -11 -15 -16
-5 -22 9 -5 11 -4 6 3 -4 7 -3 12 2 12 5 0 10 -22 11 -50 0 -29 -4 -50 -10
-50 -5 0 -7 5 -3 12 5 7 3 8 -6 3 -10 -6 -9 -11 4 -20 13 -10 17 -31 19 -96 1
-64 5 -83 15 -81 8 1 11 -2 8 -7 -6 -9 99 -5 115 5 5 3 9 -7 9 -21 0 -18 -4
-24 -12 -19 -10 6 -10 4 -1 -7 17 -18 17 -63 1 -53 -10 6 -10 4 0 -8 7 -9 13
-32 14 -51 1 -23 5 -34 12 -30 6 4 5 0 -2 -9 -9 -11 -10 -18 -2 -23 6 -3 7
-11 3 -18 -3 -6 -7 -25 -9 -42 -1 -27 1 -30 27 -31 16 -1 29 3 29 10 0 8 3 8
8 0 9 -14 45 -27 37 -14 -4 7 4 9 20 6 37 -7 41 -13 26 -38 -7 -11 -8 -17 -3
-14 6 4 11 -17 11 -51 2 -93 5 -127 15 -142 6 -10 6 -12 -2 -7 -8 5 -12 -3
-12 -23 l0 -30 77 -3 76 -3 -2 -79 c-2 -68 0 -78 13 -73 17 7 41 -27 31 -43
-3 -5 -2 -17 3 -26 8 -15 10 -15 15 0 4 10 12 13 23 9 12 -4 15 -3 10 5 -4 7
-3 12 2 12 5 0 15 11 22 25 18 33 29 21 31 -35 3 -83 1 -94 -16 -80 -10 9 -15
9 -15 1 0 -10 13 -15 32 -12 4 0 6 -17 6 -38 0 -22 3 -44 6 -50 4 -6 3 -11 -1
-11 -5 0 -9 -9 -9 -19 0 -11 4 -17 9 -14 5 3 6 -5 3 -18 -7 -23 -7 -23 8 -5 9
11 16 15 16 9 0 -18 44 -20 56 -4 10 13 14 12 29 -3 14 -14 20 -15 26 -4 5 7
9 -23 9 -74 l0 -87 69 0 c75 1 103 -7 80 -22 -8 -5 -9 -9 -4 -9 6 0 10 -27 10
-62 l0 -63 75 0 75 1 0 -66 c0 -36 -4 -71 -9 -79 -6 -10 -5 -12 2 -7 7 4 12 2
12 -4 0 -7 7 -10 18 -6 14 5 14 4 -2 -9 -17 -13 -18 -18 -8 -40 7 -15 8 -24 2
-20 -6 4 -9 -10 -8 -34 1 -23 6 -41 11 -41 6 0 8 3 4 6 -7 7 17 34 29 34 5 0
3 -5 -4 -12 -17 -17 -15 -28 5 -28 9 0 13 3 10 7 -4 3 1 12 10 18 18 13 63 1
63 -17 0 -5 4 -6 10 -3 6 3 10 -1 10 -9 0 -9 6 -16 13 -16 7 0 8 -3 2 -8 -5
-4 -11 -13 -13 -21 -3 -12 -1 -12 15 0 17 13 17 13 1 -6 -22 -27 -22 -95 1
-96 61 -4 77 -3 88 5 8 5 13 5 13 -2 0 -5 8 -9 18 -8 15 1 17 -10 19 -79 1
-44 2 -81 2 -82 1 -1 14 2 30 7 21 6 31 5 35 -3 3 -9 5 -9 5 0 1 9 8 10 25 3
15 -5 27 -5 34 2 6 6 12 6 16 0 6 -10 10 -61 6 -77 -1 -5 -2 -26 -1 -47 1 -32
4 -35 23 -30 15 4 19 2 14 -7 -6 -9 -3 -9 13 1 17 11 25 11 42 0 13 -8 18 -9
14 -2 -4 7 2 10 21 7 24 -3 27 -8 29 -40 1 -27 -3 -37 -14 -38 -12 0 -12 -2 2
-8 22 -8 24 -21 5 -32 -11 -7 -11 -9 1 -9 11 0 11 -3 1 -16 -8 -8 -9 -14 -4
-13 5 1 40 1 77 0 52 -1 66 -4 61 -13 -6 -10 -5 -10 7 -1 13 10 15 4 16 -42 0
-30 -3 -52 -8 -49 -5 3 -9 0 -9 -5 0 -6 5 -11 10 -11 6 0 9 -3 9 -7 -4 -26 5
-30 74 -27 l74 2 2 -72 c3 -150 4 -156 18 -144 16 13 17 -4 1 -20 -6 -6 -12
-23 -13 -36 0 -14 1 -23 4 -21 2 3 10 0 18 -6 10 -9 17 -8 28 1 8 7 15 8 15 3
0 -5 9 -9 20 -10 11 -1 20 3 20 9 0 6 7 5 17 -3 11 -10 14 -10 9 -1 -4 7 -2
12 4 12 6 0 8 5 4 11 -5 8 -9 8 -14 -1 -5 -8 -10 -9 -14 -2 -3 6 -2 12 4 14 6
2 1 9 -10 16 -16 10 -20 10 -18 0 2 -8 -6 -13 -19 -12 -15 1 -20 -3 -16 -15 4
-13 3 -13 -5 -2 -6 8 -12 9 -16 3 -3 -6 -1 -13 4 -15 6 -3 5 -4 -1 -3 -15 3
-21 34 -8 42 5 3 7 10 4 15 -4 5 -1 9 4 9 6 0 11 -5 11 -12 0 -16 13 -1 16 18
2 10 -3 14 -11 10 -8 -3 -17 -1 -20 5 -4 5 -11 7 -16 4 -5 -4 -9 -1 -9 4 0 15
13 14 29 -1 8 -7 11 -8 8 -2 -3 6 0 11 8 11 8 0 15 -4 15 -9 0 -5 5 -6 11 -3
14 9 -21 34 -43 30 -11 -3 -15 1 -11 11 3 10 10 11 22 4 12 -6 22 -5 29 2 9 9
12 9 12 0 0 -9 5 -10 19 -3 22 12 32 5 23 -17 -5 -14 -3 -15 9 -5 13 11 15 8
15 -21 0 -19 -4 -32 -8 -30 -5 3 -8 1 -8 -5 0 -5 4 -12 9 -16 5 -3 8 -17 5
-30 -2 -14 0 -25 5 -25 5 0 7 -18 5 -40 -3 -24 -1 -40 6 -40 5 0 10 -5 10 -11
0 -5 -4 -8 -8 -5 -5 3 -8 -8 -8 -25 0 -29 9 -38 21 -20 3 5 0 13 -6 17 -8 4
-4 11 12 20 15 8 18 14 9 14 -12 0 -11 3 3 11 13 7 22 7 31 0 7 -6 16 -8 19
-4 9 9 9 23 0 22 -23 -4 -35 3 -29 16 6 17 -2 19 -24 5 -13 -9 -13 -10 0 -10
11 -1 11 -3 -3 -11 -10 -6 -21 -8 -24 -5 -4 3 -1 6 5 6 6 0 9 13 7 32 -3 18
-1 29 3 23 9 -12 46 -20 39 -8 -3 5 5 9 18 9 13 0 21 -4 19 -8 -8 -12 11 -9
24 4 14 14 14 16 16 -49 1 -28 -2 -49 -6 -47 -13 8 -9 -10 5 -26 10 -12 9 -12
-5 -2 -13 10 -17 10 -21 0 -3 -7 -5 -1 -4 14 1 15 5 24 9 22 4 -3 8 0 8 6 0 6
-8 10 -17 8 -12 -2 -18 -12 -17 -31 1 -15 -3 -27 -7 -27 -9 0 -11 7 -13 39 -1
8 -6 16 -12 18 -13 4 -15 -28 -1 -44 5 -7 6 -13 2 -13 -4 0 -14 8 -21 18 -12
16 -13 15 -11 -5 1 -15 9 -22 30 -26 15 -2 30 0 33 4 6 10 45 3 53 -9 3 -5 14
-8 24 -6 9 1 17 -2 17 -8 0 -6 -6 -8 -14 -5 -23 9 -26 -4 -5 -26 10 -11 19
-26 19 -31 0 -6 -9 0 -20 14 -19 25 -19 25 -17 3 1 -13 5 -23 9 -23 4 0 8 -8
8 -17 0 -15 -2 -16 -10 -3 -7 11 -9 7 -7 -15 2 -25 7 -30 29 -30 16 -1 24 3
20 10 -3 5 2 4 11 -4 15 -12 17 -11 17 3 0 9 5 16 10 16 6 0 9 -6 8 -12 -2 -9
8 -13 30 -12 20 1 32 -3 32 -12 0 -7 8 -11 20 -9 11 2 20 -1 20 -6 0 -5 -6 -9
-12 -8 -34 4 -41 0 -27 -18 8 -9 9 -14 4 -11 -7 4 -9 -6 -7 -28 3 -21 8 -32
16 -28 6 3 3 -1 -6 -9 -10 -8 -15 -17 -11 -20 3 -4 13 -1 21 6 12 9 14 9 8 0
-5 -9 8 -12 54 -12 34 1 63 -1 66 -4 3 -2 6 -38 7 -78 l2 -74 30 0 c17 0 33 5
37 10 5 6 8 4 8 -5 0 -13 1 -13 10 0 6 9 10 10 10 3 0 -7 10 -10 25 -7 17 3
27 -2 36 -17 8 -15 8 -19 0 -15 -15 10 -14 -7 2 -23 6 -8 7 -11 1 -8 -7 4 -10
-9 -9 -39 3 -50 11 -66 25 -44 6 9 10 10 10 3 0 -7 19 -11 55 -10 64 3 67 -1
64 -87 -1 -31 1 -59 4 -63 4 -3 38 -6 77 -5 66 1 70 0 71 -21 0 -12 2 -33 4
-47 1 -14 -1 -32 -6 -41 -15 -30 7 -44 73 -46 35 -1 68 -2 74 -2 6 -1 10 -18
9 -41 -1 -22 2 -40 7 -40 5 0 6 -6 1 -12 -4 -7 -8 -23 -9 -35 -1 -24 18 -28
119 -23 l38 2 -2 -76 c-1 -42 2 -76 7 -77 5 0 14 -5 20 -10 6 -5 14 -6 17 -2
12 12 58 12 51 1 -5 -7 -2 -8 7 -3 20 13 49 13 50 1 4 -41 3 -52 -6 -58 -7 -5
-6 -8 1 -8 6 0 9 -17 8 -40 l-2 -40 77 0 77 0 0 -77 -1 -78 78 0 77 0 0 -77
c0 -79 5 -93 30 -78 9 5 19 5 26 -1 8 -7 14 -6 19 1 5 8 14 6 28 -7 11 -10 17
-13 14 -6 -4 6 -3 14 3 18 5 3 10 2 10 -4 0 -6 7 -8 15 -5 10 4 13 0 10 -15
-2 -12 -7 -26 -11 -33 -4 -6 -3 -8 2 -5 6 3 10 -7 9 -23 0 -16 -4 -26 -10 -22
-5 3 -5 -1 2 -9 6 -8 12 -18 12 -24 1 -15 29 -45 43 -45 6 0 4 6 -6 13 -17 12
-15 14 17 15 26 1 37 -3 40 -16 4 -16 5 -16 6 1 1 20 17 23 24 5 4 -10 6 -10
6 0 1 16 28 16 34 0 4 -10 6 -10 6 0 1 6 6 12 12 12 5 0 7 -6 3 -13 -6 -9 -5
-9 7 -1 8 7 26 12 42 12 24 0 26 -3 15 -16 -11 -13 -9 -13 12 1 13 9 34 17 45
18 11 0 14 3 8 6 -7 2 -13 11 -13 19 0 8 6 14 13 14 8 0 8 3 2 8 -6 4 -11 30
-11 58 l0 50 65 -2 c90 -3 91 -2 90 70 -1 87 -1 89 17 82 8 -3 24 -1 35 4 10
6 19 7 19 3 0 -5 19 -8 43 -9 l43 0 -2 78 -2 77 76 3 77 3 1 57 c1 40 -2 55
-10 51 -7 -5 -7 -2 1 8 6 8 12 19 12 24 1 6 33 11 73 11 l73 1 3 76 3 75 65 4
c36 1 69 -1 73 -5 5 -5 11 1 14 12 3 12 0 21 -5 21 -7 0 -6 5 1 14 8 10 8 16
-2 25 -8 6 -18 7 -22 3 -5 -4 -5 -2 -1 5 4 7 13 10 20 7 10 -4 13 3 10 27 -2
18 1 36 7 40 6 3 38 5 71 2 46 -3 58 -1 52 9 -6 10 -5 11 7 1 14 -11 15 -3 15
63 -1 44 3 78 9 80 5 2 42 5 80 6 56 3 69 6 67 18 -3 14 -5 83 -3 121 1 12 11
15 46 13 30 -2 45 1 45 9 0 9 2 9 8 0 9 -14 61 -12 59 2 -3 17 -21 25 -42 19
-11 -4 -17 -3 -12 1 4 5 17 9 29 10 16 1 22 8 23 29 0 15 -6 32 -15 37 -13 9
-12 10 3 5 9 -3 17 -1 17 4 0 6 -6 10 -12 10 -9 0 -8 4 2 10 8 5 11 10 6 10
-5 0 -3 6 3 13 6 8 8 17 4 20 -3 4 -1 7 6 7 7 0 11 -6 8 -14 -3 -8 1 -17 9
-20 9 -3 12 -1 9 4 -7 11 8 14 19 3 10 -10 46 -11 40 -1 -3 4 -1 8 5 8 5 0 12
-4 16 -10 3 -5 12 -7 19 -4 9 3 13 27 13 75 0 50 4 73 14 80 12 7 12 9 0 9 -8
0 -12 3 -8 6 3 3 12 2 19 -2 17 -11 88 -14 88 -4 0 4 -7 11 -16 14 -21 8 -26
8 -20 -2 8 -13 -33 -7 -46 6 -7 7 -8 12 -2 12 5 0 10 8 11 18 1 10 -5 19 -13
19 -9 0 -13 -6 -10 -14 3 -8 2 -11 -3 -8 -6 3 -9 14 -8 25 1 14 4 16 14 8 8
-6 13 -7 13 0 0 5 -7 15 -15 22 -25 21 -12 34 33 36 34 1 40 -2 31 -13 -8 -9
-8 -13 -1 -13 6 0 15 8 21 18 8 13 9 10 8 -17 -1 -19 3 -36 9 -38 8 -3 11 8
10 30 -3 38 -7 36 91 40 41 1 78 8 85 15 9 9 9 12 0 12 -7 0 -12 -4 -12 -8 0
-4 -11 -8 -24 -8 -15 0 -22 4 -18 10 3 6 -3 4 -14 -4 -18 -14 -18 -14 -4 4 8
11 10 17 3 13 -7 -5 -9 0 -6 15 4 14 2 20 -3 15 -9 -9 -10 -13 -13 -42 0 -8
-6 -15 -12 -15 -5 0 -7 4 -4 10 3 5 -5 21 -19 35 -14 14 -22 25 -18 25 5 0 8
17 7 38 -1 25 4 39 11 39 7 0 12 -5 11 -10 -1 -5 4 -12 12 -15 8 -2 11 0 7 6
-3 6 -2 13 3 16 5 4 12 2 16 -4 4 -6 12 -7 18 -3 17 11 38 13 32 3 -3 -5 -1
-11 5 -15 5 -3 10 -1 10 5 0 6 5 8 10 5 11 -7 12 1 14 94 1 62 2 64 29 67 15
1 27 -2 27 -7 0 -6 -4 -8 -9 -5 -5 3 -14 -1 -21 -9 -9 -11 -9 -15 -1 -15 7 0
9 -5 5 -11 -4 -8 -9 -7 -15 2 -6 10 -9 10 -9 2 0 -6 5 -15 10 -18 6 -4 8 -10
5 -15 -3 -5 -1 -11 4 -14 5 -4 12 -2 16 4 3 5 14 10 23 10 15 -1 15 -2 -1 -11
-9 -6 -15 -15 -11 -20 8 -13 -29 -7 -38 6 -5 6 -8 6 -8 -2 0 -6 5 -15 10 -18
6 -4 8 -10 6 -13 -2 -4 9 -8 25 -8 21 -1 29 3 29 15 0 13 2 14 9 2 12 -19 48
-24 53 -8 2 6 3 32 3 57 0 33 -4 44 -14 42 -9 -2 -11 3 -7 15 6 17 5 17 -7 1
-12 -15 -14 -15 -25 0 -10 15 -11 15 -6 -3 5 -16 4 -17 -5 -5 -6 8 -11 18 -11
22 0 12 58 2 77 -12 16 -14 17 -14 4 3 -9 12 -10 17 -2 17 7 0 9 5 6 10 -3 6
2 11 12 11 10 1 25 2 33 3 8 1 25 -4 38 -11 18 -11 30 -5 20 10 -1 1 4 12 11
25 9 18 10 27 1 37 -7 8 -9 18 -6 24 4 5 0 16 -8 24 -8 8 -12 17 -9 20 9 10
41 -36 36 -50 -3 -7 -1 -13 5 -13 6 0 9 8 8 17 -2 10 3 32 10 49 7 17 9 36 4
44 -4 7 -6 23 -3 34 3 12 5 31 4 44 -1 28 23 39 46 21 12 -10 15 -10 9 -1 -11
19 12 14 24 -5 11 -17 11 -17 6 0 -3 9 -1 17 4 17 6 0 10 -6 10 -12 0 -9 3
-10 8 -2 4 6 15 10 25 8 12 -1 17 5 17 22 0 18 4 23 13 18 9 -6 9 -5 1 7 -13
15 -16 72 -4 64 3 -2 7 2 7 10 0 8 -4 12 -9 9 -4 -3 -8 -1 -8 5 0 5 5 13 12
17 18 11 68 10 68 -1 0 -7 3 -7 8 0 4 6 21 10 37 10 l30 0 0 72 c1 80 6 93 32
72 11 -9 14 -10 9 -1 -6 9 7 11 52 9 l60 -3 0 60 c1 111 -6 101 67 101 36 0
65 -4 65 -8 0 -4 4 -5 10 -2 6 3 10 42 10 85 0 74 10 107 24 78 4 -7 4 2 1 20
-2 17 0 32 5 32 6 0 9 -3 9 -7 -5 -31 3 -49 21 -49 11 0 20 4 20 8 0 4 7 4 17
1 9 -4 14 -2 10 3 -3 6 -1 16 4 24 9 13 10 13 8 0 -3 -28 1 -37 16 -37 8 0 15
3 16 6 0 3 2 16 5 29 2 12 -1 22 -7 22 -7 0 -7 6 2 17 12 15 12 16 -3 10 -10
-3 -20 -1 -24 5 -4 7 -3 8 4 4 7 -4 12 -2 12 4 0 6 4 9 8 6 9 -5 11 10 14 121
1 34 6 59 10 57 4 -3 8 0 8 5 0 6 -4 11 -10 11 -5 0 -10 5 -10 11 0 8 4 8 13
2 6 -6 20 -9 29 -8 9 2 22 -3 29 -11 6 -8 16 -14 21 -14 6 0 6 6 -1 14 -10 12
-9 14 6 12 10 -2 21 1 24 6 3 5 9 2 12 -7 4 -9 3 -14 -3 -10 -6 4 -9 2 -8 -3
2 -6 0 -9 -4 -8 -4 0 -14 -8 -23 -19 -9 -11 -13 -13 -9 -5 7 13 6 13 -11 0
-15 -12 -17 -12 -10 -1 5 10 4 12 -3 7 -9 -5 -7 -14 4 -32 19 -28 26 -31 17
-6 -5 15 -4 14 9 -2 10 -12 20 -16 29 -11 8 5 11 5 7 0 -4 -4 -2 -15 5 -23 10
-13 9 -14 -2 -7 -10 6 -12 4 -6 -5 5 -9 4 -11 -4 -6 -6 4 -8 12 -5 18 4 6 1 8
-7 6 -8 -3 -13 -11 -11 -17 1 -7 -1 -10 -6 -7 -4 2 -14 1 -22 -4 -11 -7 18 -7
71 -1 4 1 5 33 4 72 -1 38 2 72 6 75 4 2 6 13 4 24 -2 11 0 20 5 20 4 0 11 7
14 16 5 14 4 15 -7 5 -12 -9 -14 -3 -13 37 1 37 5 48 18 49 11 1 15 -4 12 -15
-5 -16 -5 -16 8 0 14 16 16 16 31 0 14 -13 19 -14 29 -3 11 10 10 11 -3 6 -10
-4 -19 -2 -23 3 -3 5 10 9 28 9 25 0 33 -4 31 -16 -1 -9 -8 -15 -14 -13 -19 4
-12 -15 7 -20 14 -4 18 0 17 16 -1 12 1 26 5 31 4 6 7 30 5 55 -1 25 2 50 7
57 5 6 5 14 -1 17 -6 4 -8 12 -5 19 3 8 27 11 77 9 l74 -3 1 82 c1 45 7 88 13
95 9 11 8 14 -2 14 -11 0 -11 2 1 10 8 5 10 10 5 10 -6 0 -11 13 -10 29 0 16
3 27 7 24 5 -2 8 0 8 6 0 5 -5 12 -10 14 -6 3 -5 4 2 3 7 -2 19 4 26 13 11 14
13 14 25 1 6 -8 19 -15 27 -15 8 0 21 7 28 15 10 13 11 13 6 -2 -3 -10 -2 -18
2 -18 18 0 32 51 30 115 -1 46 2 65 11 65 7 0 13 6 13 13 0 8 3 7 9 -3 6 -8 7
-19 4 -25 -4 -5 3 -1 15 9 17 14 22 16 22 5 0 -11 2 -12 9 -1 11 18 20 17 37
-5 13 -17 14 -17 8 0 -4 12 -2 17 7 15 11 -2 15 13 16 62 5 150 9 190 21 202
16 16 15 33 -1 19 -10 -8 -14 -7 -14 2 0 9 19 12 62 12 47 0 61 -3 58 -12 -3
-8 0 -11 9 -8 17 7 17 9 19 110 1 42 4 73 7 70 3 -2 11 0 19 6 10 9 13 8 13
-2 0 -11 2 -11 10 1 5 8 10 10 10 4 0 -14 52 -13 62 1 5 6 8 5 8 -4 0 -10 4
-11 13 -3 9 8 14 52 8 81 -1 2 -7 -2 -14 -8 -10 -8 -14 -7 -14 4 0 7 3 14 6
13 23 -2 26 12 27 110 l1 107 26 -1 c15 -1 27 4 27 10 0 6 5 4 10 -4 5 -8 10
-10 10 -5 0 6 4 4 9 -4 8 -12 12 -12 25 -2 12 10 19 11 30 2 11 -10 14 0 15
56 2 246 3 253 20 254 9 1 41 2 71 3 54 1 55 1 58 34 2 17 -1 32 -7 32 -6 0
-7 -8 -4 -17 4 -10 -5 -4 -20 13 -15 18 -27 36 -27 40 0 5 8 -1 18 -14 16 -21
19 -21 37 -7 19 16 19 16 -5 11 -21 -4 -22 -3 -10 7 19 16 21 26 23 124 1 49
6 83 12 83 7 0 7 3 0 8 -13 9 -15 62 -3 62 5 0 6 6 1 13 -12 20 -10 80 4 107
7 15 13 19 13 10 0 -9 -5 -21 -12 -28 -6 -6 -8 -15 -3 -19 4 -5 10 -2 12 5 7
20 22 14 18 -7 -2 -11 4 -26 13 -33 15 -11 15 -11 5 3 -10 12 -10 18 0 29 10
10 9 11 -2 5 -10 -5 -12 -4 -7 4 4 6 11 9 16 6 4 -3 11 1 13 7 4 9 6 8 6 -2 1
-9 -3 -20 -9 -26 -6 -6 -3 -10 9 -10 13 0 17 7 15 23 -1 13 2 23 8 23 6 0 7
-7 4 -16 -4 -10 -2 -13 6 -8 8 5 9 2 5 -10 -4 -11 -3 -15 4 -11 6 4 8 14 4 22
-4 12 -2 13 7 5 13 -10 14 16 17 363 1 17 0 57 -2 90 -1 43 2 64 13 75 9 8 11
12 4 7 -8 -5 -13 1 -16 18 -5 22 -2 25 16 20 19 -5 19 -5 4 5 -30 19 -21 37
16 35 24 -1 33 2 29 12 -5 14 12 19 20 6 2 -5 3 -3 2 2 -1 6 8 21 21 35 28 29
30 21 8 -21 -8 -17 -13 -33 -10 -36 3 -3 9 5 14 17 6 17 11 20 16 11 5 -7 3
-18 -3 -24 -14 -14 -14 -27 1 -27 6 0 8 3 5 7 -4 3 -2 12 5 20 8 10 8 17 0 25
-13 13 -16 32 -4 24 4 -2 8 4 8 14 0 10 -3 17 -6 15 -4 -2 -7 9 -7 25 0 16 3
28 6 26 3 -2 6 16 7 40 1 34 -3 44 -15 44 -14 1 -14 2 1 14 16 12 18 50 3 64
-2 3 1 12 8 20 9 12 9 16 0 19 -7 3 -13 9 -13 14 0 6 4 8 8 5 5 -3 8 9 8 26
-1 17 -7 33 -14 36 -10 3 -8 8 5 19 13 10 15 16 5 19 -6 3 -9 11 -5 17 4 6 7
24 8 39 1 20 -2 25 -11 17 -8 -7 -14 -5 -18 7 -5 13 -9 14 -21 4 -11 -9 -14
-8 -12 9 1 15 6 20 17 15 30 -12 45 -9 44 11 0 14 -5 19 -21 18 -18 -2 -21 2
-18 27 2 16 0 32 -6 35 -5 4 -7 11 -4 16 4 5 -7 26 -24 46 -19 23 -27 40 -20
44 7 4 5 8 -4 12 -15 6 -18 -15 -4 -29 17 -17 5 -25 -13 -9 -28 25 -25 14 5
-21 34 -39 32 -51 -4 -22 -26 20 -30 30 -30 74 -1 43 2 53 22 62 20 11 20 11
-8 6 -28 -5 -29 -4 -12 9 10 8 14 17 8 18 -9 4 -11 33 -11 169 -1 200 -6 310
-15 310 -5 0 -3 5 5 10 13 9 13 10 0 10 -12 0 -13 2 -1 9 7 5 10 14 7 20 -4 6
-12 9 -17 6 -18 -12 -49 -14 -49 -3 0 5 7 8 14 5 11 -4 13 -1 9 10 -4 11 -2
14 5 9 7 -4 20 -2 29 4 16 9 15 10 -5 5 -13 -4 -22 -2 -22 4 0 6 6 11 14 11 8
0 18 5 22 11 4 8 -1 9 -17 5 -22 -7 -23 -6 -6 7 16 13 15 15 -15 15 -40 1 -65
6 -74 15 -7 7 12 11 31 7 6 -1 27 -3 48 -5 34 -3 37 -2 21 10 -10 7 -24 11
-31 8 -9 -4 -11 1 -7 13 4 14 3 16 -4 5 -5 -7 -12 -9 -14 -5 -3 5 -3 3 -2 -3
5 -18 -15 -16 -22 2 -4 9 -14 13 -23 11 -29 -10 -38 8 -39 79 0 39 -2 106 -4
150 l-3 80 -67 0 c-60 1 -66 -1 -54 -15 7 -8 12 -30 11 -48 -1 -18 3 -36 9
-40 17 -12 61 -8 59 6 -2 7 4 9 15 5 14 -5 13 -3 -3 11 -20 17 -20 17 2 7 23
-12 25 -37 2 -53 -11 -8 -11 -9 4 -4 9 3 17 1 17 -4 0 -6 -9 -10 -20 -10 -25
0 -26 15 -2 30 11 8 12 10 2 7 -8 -2 -19 -13 -25 -25 -12 -26 -27 -30 -18 -4
6 16 5 16 -14 -1 -18 -16 -22 -16 -36 -3 -8 8 -16 13 -18 11 -2 -2 -5 60 -7
138 -2 78 -5 143 -7 145 -10 10 -125 8 -125 -2 0 -6 -5 -5 -12 2 -7 7 -11 42
-11 87 0 74 0 75 -26 76 -28 1 -99 -2 -116 -4 -13 -3 -14 34 -1 52 8 11 8 13
-2 7 -10 -6 -12 1 -11 26 4 68 1 73 -33 73 -22 0 -32 4 -30 13 1 8 -2 11 -8 7
-6 -3 -8 -11 -5 -16 4 -5 -3 -9 -15 -9 -12 0 -19 4 -15 9 3 5 0 13 -6 17 -7 4
-9 3 -5 -4 8 -14 -10 -25 -26 -15 -9 5 -13 33 -13 78 l0 70 -81 0 -81 0 8 27
c5 18 3 28 -4 31 -9 3 -8 8 2 20 8 11 9 17 2 17 -7 0 -8 8 -1 25 11 29 8 31
-44 34 -32 1 -37 -1 -28 -12 7 -8 9 -16 6 -20 -7 -6 37 -32 49 -29 5 1 6 -2 2
-8 -4 -7 -17 -3 -35 10 -16 11 -36 18 -47 14 -13 -4 -13 -2 3 8 18 11 20 15 8
26 -15 13 -34 16 -35 5 -4 -41 -26 -81 -26 -48 0 8 3 15 7 15 3 0 6 9 7 20 2
19 -4 20 -83 20 -66 0 -89 4 -102 16 -15 15 -14 16 8 9 23 -7 24 -7 10 10 -8
11 -10 16 -4 12 7 -4 18 1 25 11 13 15 12 16 -3 4 -20 -16 -32 -1 -23 29 5 15
4 19 -4 15 -8 -5 -8 0 -1 19 6 15 6 24 1 20 -5 -3 -12 -1 -16 5 -4 6 -13 7
-23 1 -9 -5 -26 -5 -37 -1 -11 4 -26 3 -32 -2 -8 -7 -18 -7 -25 -1 -7 5 -50 9
-96 9 -69 -1 -82 1 -77 14 3 10 1 9 -9 -3 -13 -17 -14 -17 -21 0 -5 10 -7 21
-7 26 1 4 -3 7 -8 7 -14 0 -13 -13 2 -28 6 -6 9 -14 6 -17 -8 -9 -38 6 -32 16
3 5 -2 6 -10 3 -9 -3 -16 -11 -16 -18 0 -6 -8 -2 -17 9 -14 17 -15 18 -9 2 5
-15 2 -17 -13 -12 -40 12 -61 13 -61 3 0 -6 -3 -8 -6 -5 -4 4 -1 14 7 24 11
14 11 15 0 9 -8 -5 -17 -3 -23 5 -7 10 -8 8 -3 -8 6 -20 3 -22 -34 -19 -23 2
-41 -1 -41 -5 0 -5 -5 -9 -11 -9 -8 0 -8 5 1 15 10 12 10 15 -1 15 -10 0 -10
3 -1 12 10 10 8 16 -10 31 -19 15 -20 17 -3 9 11 -5 26 -7 33 -5 15 6 6 23
-11 19 -7 -1 -8 -1 -4 2 4 2 0 10 -10 18 -17 13 -17 14 1 7 13 -4 17 -3 12 5
-3 6 -1 14 5 18 7 4 9 3 6 -3 -3 -5 0 -10 7 -10 7 0 13 5 13 11 0 7 -23 11
-58 11 -32 0 -55 -4 -52 -9 4 -5 0 -6 -8 0 -17 10 -71 15 -65 6 2 -4 -2 -16
-10 -27 -8 -10 -14 -14 -14 -9 0 6 5 15 12 22 14 14 16 13 -39 16 -23 1 -40
-1 -37 -5 2 -4 0 -11 -6 -14 -6 -4 -9 -1 -8 7 2 7 -4 13 -12 13 -8 0 -14 -7
-12 -15 2 -8 0 -12 -4 -8 -4 4 -14 2 -23 -4 -10 -8 -9 -4 3 10 15 17 16 22 5
22 -8 0 -21 -6 -28 -12 -11 -11 -12 -10 -6 0 6 11 0 13 -28 9 -19 -2 -41 -8
-47 -12 -9 -5 -11 -4 -6 3 4 7 1 12 -9 12 -10 0 -13 -5 -9 -12 5 -7 3 -8 -7
-2 -19 11 -99 13 -99 2 0 -5 4 -7 9 -4 5 4 8 -2 7 -11 -3 -19 -36 -32 -36 -14
0 6 7 8 16 4 13 -5 14 -3 4 13 -12 19 -60 30 -60 13 0 -5 5 -8 11 -6 6 1 14
-5 16 -13 4 -13 3 -13 -6 0 -6 8 -11 11 -11 5 0 -5 -7 -2 -15 8 -13 18 -14 18
-25 -3 -10 -18 -9 -21 6 -18 28 5 29 -30 2 -59 -17 -20 -19 -25 -6 -20 11 4
21 0 28 -11 9 -16 11 -16 20 0 6 10 18 14 31 11 19 -5 20 -4 8 15 -7 11 -16
19 -20 16 -5 -2 -13 6 -19 18 -10 21 -10 21 3 6 8 -10 16 -15 19 -13 3 3 13
-6 22 -20 15 -23 15 -26 1 -31 -9 -4 -19 -4 -22 0 -3 3 -12 -2 -20 -12 -12
-15 -14 -16 -25 -1 -7 9 -19 14 -26 11 -10 -3 -10 -7 -1 -18 10 -12 8 -13 -13
-5 -14 5 -28 7 -31 4 -11 -10 -67 -11 -60 0 3 5 -2 16 -12 24 -11 7 -14 13 -9
13 6 0 16 -6 24 -12 11 -10 11 -9 0 7 -14 18 -13 19 1 8 9 -7 20 -9 24 -5 5 4
4 0 0 -8 -8 -13 -7 -13 11 0 15 11 16 11 7 0 -7 -8 -13 -18 -13 -24 0 -5 7 -1
16 10 8 10 13 14 10 7 -7 -13 19 -12 31 2 4 4 2 5 -6 0 -9 -5 -12 -4 -7 3 3 6
2 13 -2 16 -13 8 -8 51 7 70 8 9 11 20 7 23 -13 13 -37 11 -43 -3 -4 -12 -7
-12 -18 3 -11 15 -13 15 -24 -5 -6 -12 -17 -22 -24 -22 -7 0 -8 3 -2 8 16 11
16 30 0 28 -24 -3 -29 -15 -14 -33 12 -15 12 -16 -3 -10 -13 4 -15 2 -11 -10
3 -8 0 -19 -8 -25 -10 -7 -9 -8 7 -4 15 5 21 2 21 -9 0 -9 -6 -14 -13 -11 -9
3 -11 -1 -7 -11 5 -12 3 -14 -8 -8 -8 5 -5 -1 5 -13 17 -19 17 -22 3 -22 -10
0 -17 5 -17 11 0 5 -5 7 -11 3 -19 -11 -79 -12 -72 -1 4 6 1 7 -7 2 -8 -5 -34
-10 -59 -12 -26 -1 -50 -3 -56 -4 -5 0 -25 1 -43 4 -18 2 -35 1 -38 -4 -2 -4
-10 -6 -17 -3 -7 2 -13 -6 -13 -21 -2 -21 1 -24 12 -14 9 7 14 7 14 1 0 -5 -6
-12 -13 -15 -16 -6 -61 29 -48 37 5 4 11 0 14 -6 2 -7 8 -9 13 -5 5 5 1 15
-10 23 -17 12 -21 11 -32 -4 -12 -15 -9 -21 19 -44 18 -15 26 -28 20 -28 -7 0
-13 5 -13 11 0 8 -5 7 -15 -1 -9 -7 -18 -10 -22 -6 -3 3 -1 6 5 6 7 0 12 4 12
9 0 5 -11 9 -25 9 -26 0 -34 -13 -12 -21 9 -4 9 -6 0 -6 -16 -1 -24 14 -17 33
5 12 10 14 19 6 9 -8 13 -4 13 15 0 21 -3 23 -14 14 -12 -10 -13 -8 -7 7 6 17
5 17 -10 6 -9 -8 -21 -11 -26 -7 -7 3 -8 0 -5 -9 3 -9 10 -13 15 -10 5 3 9 0
9 -5 0 -6 -8 -11 -17 -11 -15 0 -16 -2 -3 -10 9 -6 11 -10 3 -10 -7 0 -10 -7
-7 -15 4 -8 10 -13 14 -10 5 3 19 -5 31 -17 17 -18 20 -19 16 -5 -8 23 5 22
20 -1 7 -13 8 -23 1 -33 -8 -11 -9 -10 -4 5 5 14 2 17 -10 12 -8 -3 -18 -6
-20 -6 -3 0 -2 -5 2 -12 4 -7 3 -8 -5 -4 -6 4 -9 12 -5 17 7 13 -15 41 -27 33
-5 -3 -9 -16 -9 -30 0 -24 -2 -24 -87 -25 -49 -1 -92 -1 -96 0 -4 1 -2 -9 5
-21 7 -13 13 -46 13 -73 l0 -51 -37 0 c-39 0 -50 9 -23 20 8 3 15 11 15 17 0
8 -4 8 -15 -1 -10 -9 -15 -9 -15 -1 0 6 5 11 10 11 6 0 10 5 10 11 0 5 -4 7
-10 4 -5 -3 -10 -1 -10 5 0 7 7 10 15 6 8 -3 15 -1 15 4 0 6 -4 10 -9 10 -5 0
-16 3 -24 6 -12 4 -14 -5 -12 -50 1 -30 -2 -53 -6 -50 -5 2 -6 11 -2 20 3 8 2
14 -3 13 -21 -4 -35 2 -29 11 3 6 1 10 -5 10 -7 0 -10 -6 -7 -13 11 -30 -11
-42 -80 -43 -102 -3 -101 -2 -83 -14 11 -7 11 -10 2 -10 -9 0 -10 -5 -3 -17 7
-12 5 -21 -7 -30 -14 -11 -14 -12 -1 -8 12 5 15 -2 13 -32 -2 -49 -1 -48 -21
-32 -9 8 -14 9 -10 2 8 -14 -50 -13 -72 1 -10 7 -12 6 -6 -4 6 -10 3 -12 -14
-7 -14 3 -24 0 -27 -8 -3 -8 -13 -11 -22 -8 -15 4 -15 3 -2 -6 18 -12 22 -92
6 -103 -8 -5 -7 -8 2 -8 6 0 12 -4 12 -10 0 -5 -9 -10 -21 -10 -13 0 -18 4
-13 13 6 9 4 9 -7 1 -8 -6 -33 -12 -57 -13 -42 -2 -102 -19 -72 -20 16 -1 24
-51 8 -51 -5 0 -6 5 -2 12 4 7 3 8 -4 4 -16 -10 -15 -26 1 -26 19 0 16 -70 -3
-71 -8 0 -25 -2 -37 -3 -13 -2 -23 2 -23 7 0 5 -6 4 -14 -2 -10 -8 -16 -9 -21
-1 -3 5 -11 10 -16 10 -6 0 -7 -6 -3 -12 5 -8 0 -7 -11 2 -11 9 -16 10 -11 2
4 -7 1 -15 -8 -18 -14 -5 -14 -8 1 -22 8 -9 12 -17 7 -19 -5 -2 -7 -25 -6 -53
l4 -49 -56 0 c-31 1 -56 5 -56 11 0 5 5 6 12 2 6 -4 8 -3 5 4 -8 12 -32 10
-44 -3 -4 -4 -2 -5 5 -1 6 4 12 3 12 -2 0 -5 -8 -12 -18 -14 -16 -4 -18 -15
-16 -77 2 -78 7 -74 -73 -74 -28 0 -40 -4 -36 -11 4 -6 -1 -5 -10 3 -21 16
-26 12 -33 -24 -3 -18 -1 -24 7 -20 8 5 8 2 1 -11 -5 -11 -8 -35 -7 -55 2 -30
-2 -39 -24 -51 -27 -16 -49 -13 -64 6 -5 6 -6 2 -2 -9 4 -11 7 -28 7 -37 -1
-27 23 -41 47 -28 12 6 21 16 20 23 0 9 -2 9 -6 0 -2 -7 -9 -13 -14 -13 -5 0
-3 14 6 30 9 17 17 30 19 30 1 0 3 -32 3 -72 0 -49 -2 -66 -9 -54 -5 9 -13 14
-19 11 -16 -11 -10 7 9 22 15 13 15 13 -4 4 -17 -8 -27 -6 -48 10 -14 11 -24
24 -21 29 8 13 -5 37 -20 37 -8 0 -15 -4 -15 -9 0 -4 6 -8 14 -8 9 0 14 -9 13
-20 -1 -11 -6 -18 -12 -16 -5 2 -9 9 -7 15 1 6 -2 11 -8 11 -14 0 -13 -13 2
-28 9 -9 9 -12 0 -12 -6 0 -16 8 -21 18 -6 9 -11 12 -11 5 0 -6 5 -15 10 -18
6 -4 10 -12 9 -18 -4 -30 1 -39 14 -28 10 8 17 7 25 -1 11 -11 17 -1 13 25 -2
14 19 7 36 -12 9 -11 20 -18 25 -15 4 3 8 1 8 -5 0 -6 -28 -9 -70 -7 -44 2
-67 -1 -63 -7 4 -6 1 -7 -8 -1 -17 10 -47 11 -76 2 -13 -4 -23 -3 -23 2 0 5
-9 7 -19 5 -12 -2 -21 3 -24 16 -3 10 -1 19 4 19 5 0 9 -5 9 -12 0 -6 3 -8 6
-5 4 4 2 12 -3 19 -6 7 -11 33 -13 58 -1 25 -3 53 -3 63 -1 9 -6 17 -12 17 -5
0 -3 5 5 10 13 9 13 11 0 20 -8 5 -10 10 -5 10 14 0 13 79 0 82 -31 4 -41 3
-52 -5 -9 -6 -13 -6 -13 1 0 6 -16 9 -40 7 l-40 -4 0 80 0 80 -42 -1 c-90 -1
-100 0 -109 5 -5 4 -5 13 1 25 7 13 6 20 -3 23 -6 3 -7 6 -2 6 7 1 9 19 5 49
-3 29 -10 46 -18 44 -7 -1 -12 3 -12 9 0 5 -5 7 -12 3 -6 -4 -34 -8 -62 -9
l-52 -1 2 78 2 78 -31 1 c-18 1 -38 1 -45 0 -8 -1 -20 3 -28 10 -12 10 -15 10
-12 -1 2 -7 -7 -13 -19 -15 -22 -2 -23 1 -23 79 l0 81 -80 0 c-44 -1 -80 3
-80 8 0 4 5 18 12 30 11 21 10 21 -7 7 -13 -10 -16 -11 -11 -2 4 7 9 32 10 55
3 45 -14 62 -46 46 -11 -6 -19 -5 -24 2 -4 8 -9 7 -15 -2 -6 -10 -9 -10 -9 -2
0 7 -6 10 -14 7 -8 -3 -30 -1 -50 4 -26 8 -36 7 -36 -1 0 -8 -3 -8 -8 -2 -4 6
-16 11 -27 11 -11 0 -19 5 -18 11 2 7 -6 11 -17 10 -22 -1 -26 -13 -7 -20 12
-5 10 -6 -20 -7 -12 -1 -12 34 -1 47 7 9 7 13 0 13 -6 0 -9 18 -7 45 l3 45
-89 0 -89 0 10 25 c7 19 6 23 -5 18 -8 -3 -12 -9 -9 -14 3 -5 0 -9 -6 -9 -6 0
-9 -4 -6 -8 2 -4 -5 -9 -16 -9 -18 -2 -19 -1 -4 10 14 11 13 12 -8 13 -18 1
-23 -2 -19 -15 4 -14 3 -14 -6 -1 -9 13 -11 13 -11 0 0 -12 -2 -13 -9 -1 -7
11 -9 11 -14 0 -5 -12 -6 -12 -6 0 -1 10 -4 11 -15 2 -12 -10 -14 -9 -12 6 2
10 -2 21 -8 25 -8 6 -8 8 1 8 8 0 10 15 8 44 l-4 44 34 -1 c18 -1 32 -4 30 -7
-2 -3 1 -12 6 -20 7 -11 8 -8 6 10 -4 23 -9 25 -60 30 -34 3 -59 1 -61 -5 -3
-6 -5 -6 -5 0 -1 6 -21 10 -48 9 -27 -1 -56 2 -67 8 -13 7 -16 7 -12 -1 4 -6
0 -11 -9 -11 -9 0 -13 4 -10 10 3 5 0 8 -7 5 -7 -3 -34 -6 -60 -9 -38 -3 -47
-1 -51 14 -2 10 -1 24 4 31 4 7 5 18 1 23 -9 16 -12 57 -2 51 4 -3 7 3 6 12
-4 23 -24 29 -32 9 -3 -9 -10 -13 -15 -10 -5 3 -7 10 -4 15 4 5 1 9 -4 9 -11
0 -14 -11 -8 -27 1 -5 5 -7 9 -6 4 2 6 -6 5 -17 -1 -11 -4 -20 -7 -20 -13 0
-32 48 -25 62 4 8 2 7 -7 -2 -15 -17 -38 -24 -38 -11 0 5 -7 12 -16 15 -8 3
-12 2 -9 -4 3 -6 1 -10 -4 -10 -6 0 -11 3 -11 8 0 4 -32 7 -70 7 -39 0 -70 -3
-70 -8 0 -4 4 -5 10 -2 6 4 7 -1 3 -10 -5 -16 -4 -16 25 -1 24 12 32 13 38 3
4 -6 4 -9 -1 -5 -4 4 -20 1 -36 -7 -27 -14 -29 -14 -41 8 -10 17 -22 22 -48
22 -19 0 -38 -4 -42 -10 -5 -7 -8 -7 -8 0 0 6 -34 10 -84 10 -46 0 -82 -3 -80
-7 2 -4 0 -10 -6 -13 -6 -4 -9 -1 -8 6 2 8 -12 13 -39 14 -24 2 -40 -1 -38 -6
3 -4 1 -11 -5 -14 -6 -4 -9 -1 -8 5 2 7 -10 14 -27 16 l-30 3 25 -20 c18 -14
20 -17 6 -12 -14 5 -17 3 -11 -7 5 -9 4 -11 -4 -6 -6 4 -9 11 -6 16 6 10 -13
24 -38 25 -10 1 -16 -3 -13 -11z m161 -12 c-3 -3 -11 0 -18 7 -9 10 -8 11 6 5
10 -3 15 -9 12 -12z m174 4 c9 -11 9 -16 -1 -22 -7 -4 -10 -4 -6 1 4 4 3 14
-3 22 -6 7 -9 13 -6 13 2 0 10 -6 16 -14z m240 -12 c-6 -8 -17 -14 -23 -14 -6
0 -3 7 6 14 10 7 14 17 10 21 -4 5 -1 5 6 1 10 -6 10 -11 1 -22z m191 22 c0
-2 -7 -9 -15 -16 -13 -11 -14 -10 -9 4 5 14 24 23 24 12z m3796 -11 c10 14 14
15 14 4 0 -12 2 -12 10 1 5 8 10 10 10 4 0 -6 -6 -17 -13 -23 -15 -12 -16 -48
-2 -71 7 -12 6 -13 -6 -4 -8 6 -22 10 -31 9 -10 -2 -20 1 -23 5 -3 5 -13 7
-23 4 -13 -5 -14 -4 -4 4 11 7 10 10 -3 16 -15 5 -13 10 11 34 24 22 31 24 38
13 7 -12 11 -11 22 4z m197 0 c4 -8 1 -17 -5 -21 -7 -4 -8 -3 -4 4 4 7 2 12
-4 12 -6 0 -8 5 -5 10 8 14 12 13 18 -5z m386 -19 c-3 -3 -11 5 -18 17 -13 21
-12 21 5 5 10 -10 16 -20 13 -22z m55 26 c3 -5 -1 -9 -9 -9 -8 0 -12 4 -9 9 3
4 7 8 9 8 2 0 6 -4 9 -8z m-4541 -15 c4 3 7 1 7 -6 0 -7 4 -10 9 -6 12 7 33
-29 24 -39 -12 -12 12 -5 30 8 14 11 15 15 5 19 -8 3 -6 6 6 6 12 1 16 -4 13
-14 -4 -8 -2 -17 4 -21 7 -4 6 -10 -1 -19 -6 -7 -8 -19 -5 -27 4 -9 -1 -18
-10 -22 -10 -4 -14 -2 -9 5 4 8 -1 9 -16 4 -19 -6 -22 -4 -17 9 4 9 1 16 -6
16 -8 0 -8 3 2 9 9 6 10 11 2 15 -6 4 -8 12 -5 18 4 7 2 8 -4 4 -6 -4 -8 -14
-5 -22 5 -14 3 -14 -16 -3 -11 8 -21 17 -21 22 0 4 -5 5 -11 1 -8 -4 -7 -9 2
-16 10 -7 9 -8 -6 -4 -20 6 -20 6 -1 -9 11 -8 17 -15 13 -16 -32 -5 -51 -1
-55 11 -3 12 -2 12 6 1 5 -7 12 -9 15 -4 6 10 -19 36 -44 46 -11 4 -10 6 2 6
9 1 22 -6 29 -14 7 -8 17 -12 22 -9 6 4 6 9 -2 14 -9 5 -9 9 -1 14 6 4 11 2
11 -4 0 -6 4 -9 9 -5 5 3 12 1 16 -4 6 -11 35 -4 35 8 0 7 -24 10 -77 12 -13
1 -23 3 -23 5 0 11 46 21 56 13 6 -5 14 -6 17 -2z m-635 -32 c-3 -3 -9 2 -12
12 -6 14 -5 15 5 6 7 -7 10 -15 7 -18z m115 12 c4 3 7 2 7 -4 0 -6 -8 -13 -18
-15 -12 -4 -18 1 -18 13 0 12 4 15 12 9 6 -6 14 -7 17 -3z m388 -16 c-11 -20
-41 -19 -41 1 0 6 8 4 17 -3 15 -12 16 -12 10 4 -4 11 -3 16 3 12 6 -3 10 -1
10 6 0 7 3 10 6 7 3 -4 1 -16 -5 -27z m4594 19 c-3 -5 -14 -10 -23 -9 -14 0
-13 2 3 9 27 11 27 11 20 0z m-4701 -11 c3 -3 -10 -5 -29 -4 -18 0 -36 3 -39
6 -3 3 10 5 29 4 18 0 36 -3 39 -6z m43 -11 c-3 -8 -6 -5 -6 6 -1 11 2 17 5
13 3 -3 4 -12 1 -19z m4274 -15 c-11 -16 -11 -16 -6 4 5 19 3 22 -12 17 -15
-5 -15 -4 -3 5 21 14 35 -3 21 -26z m459 9 c3 -3 -6 -1 -19 3 -18 5 -22 4 -16
-5 5 -8 4 -11 -3 -6 -6 4 -9 13 -5 22 5 14 9 13 43 -14z m-5142 -23 c-3 -8 -7
-3 -11 10 -4 17 -3 21 5 13 5 -5 8 -16 6 -23z m478 3 c-17 -16 -18 -16 -5 5 7
12 15 20 18 17 3 -2 -3 -12 -13 -22z m4610 -8 c3 -16 2 -26 -1 -23 -3 4 -8 19
-11 35 -3 16 -2 26 1 23 3 -4 8 -19 11 -35z m-5030 4 c10 -13 12 -18 5 -11 -9
8 -20 9 -31 3 -12 -6 -17 -5 -17 5 0 7 7 11 15 7 10 -3 13 -1 8 6 -12 20 0 13
20 -10z m115 5 c13 -16 12 -17 -3 -4 -10 7 -18 15 -18 17 0 8 8 3 21 -13z
m133 -13 c-6 -6 -10 -3 -10 10 0 13 4 16 10 10 7 -7 7 -13 0 -20z m4667 13
c13 -16 12 -17 -3 -4 -10 7 -18 15 -18 17 0 8 8 3 21 -13z m-4861 -2 c0 -6 -4
-12 -8 -15 -5 -3 -9 1 -9 9 0 8 4 15 9 15 4 0 8 -4 8 -9z m320 -1 c0 -5 -4
-10 -10 -10 -5 0 -10 5 -10 10 0 6 5 10 10 10 6 0 10 -4 10 -10z m84 -5 c-4
-8 -8 -15 -10 -15 -2 0 -4 7 -4 15 0 8 4 15 10 15 5 0 7 -7 4 -15z m4096 5 c0
-5 -4 -10 -10 -10 -5 0 -10 5 -10 10 0 6 5 10 10 10 6 0 10 -4 10 -10z m120
-2 c0 -11 -12 -10 -30 2 -12 7 -10 9 8 7 12 0 22 -5 22 -9z m94 4 c3 -5 -1 -9
-9 -9 -8 0 -12 4 -9 9 3 4 7 8 9 8 2 0 6 -4 9 -8z m211 -2 c-3 -5 -12 -10 -18
-10 -7 0 -6 4 3 10 19 12 23 12 15 0z m108 3 c-7 -2 -13 -9 -13 -14 0 -6 5 -7
12 -3 7 5 8 3 3 -5 -5 -9 -11 -9 -17 -3 -12 12 -2 32 15 31 9 0 9 -2 0 -6z
m-5178 -12 c3 -5 2 -12 -3 -15 -5 -3 -9 1 -9 9 0 17 3 19 12 6z m481 -6 c-3
-8 2 -19 12 -24 9 -6 13 -10 7 -11 -20 0 -35 17 -29 33 3 9 8 17 11 17 3 0 3
-7 -1 -15z m172 3 c21 -21 14 -44 -13 -43 -14 1 -28 4 -31 8 -3 3 -13 3 -22 0
-10 -4 -14 -3 -10 1 3 4 12 9 20 10 7 2 21 7 31 11 15 6 16 10 5 16 -7 5 -8 9
-2 9 5 0 15 -5 22 -12z m-368 -6 c0 -5 -7 -9 -15 -9 -8 0 -12 4 -9 9 3 4 9 8
15 8 5 0 9 -4 9 -8z m158 -23 c-3 -8 -7 -3 -11 10 -4 17 -3 21 5 13 5 -5 8
-16 6 -23z m77 21 c-3 -5 -2 -10 3 -10 6 0 13 -7 16 -15 4 -13 1 -12 -18 2
-16 12 -20 20 -12 25 15 10 18 10 11 -2z m4219 2 c2 -4 0 -14 -6 -22 -8 -12
-9 -12 -5 2 3 9 1 19 -6 22 -9 3 -9 5 0 5 6 1 14 -3 17 -7z m-4714 -6 c0 -2
-8 -10 -17 -17 -16 -13 -17 -12 -4 4 13 16 21 21 21 13z m4453 -19 c-5 -8 -8
-7 -11 1 -2 7 -9 9 -14 6 -7 -4 -8 -2 -4 4 4 6 13 9 21 6 8 -4 12 -11 8 -17z
m624 4 c-1 -16 -4 -18 -17 -8 -25 19 -26 20 -7 14 9 -4 17 -2 17 3 0 6 2 10 4
10 3 0 4 -9 3 -19z m-4987 -1 c-8 -5 -19 -10 -25 -10 -5 0 -3 5 5 10 8 5 20
10 25 10 6 0 3 -5 -5 -10z m204 2 c3 -5 -1 -9 -9 -9 -8 0 -12 4 -9 9 3 4 7 8
9 8 2 0 6 -4 9 -8z m46 2 c0 -8 -19 -13 -24 -6 -3 5 1 9 9 9 8 0 15 -2 15 -3z
m200 -4 c0 -5 -2 -10 -4 -10 -3 0 -8 5 -11 10 -3 6 -1 10 4 10 6 0 11 -4 11
-10z m-1159 -52 c5 -10 4 -15 -5 -15 -8 0 -12 7 -8 15 3 10 1 13 -6 8 -6 -3
-13 -2 -16 3 -4 5 1 8 10 7 9 -1 20 -9 25 -18z m6358 3 c19 -14 21 -20 10 -26
-8 -5 -11 -4 -6 0 4 5 -5 17 -20 27 -16 10 -23 18 -18 18 6 0 21 -9 34 -19z
m45 11 c3 -5 -1 -9 -9 -9 -8 0 -15 4 -15 9 0 4 4 8 9 8 6 0 12 -4 15 -8z m-70
-27 c-1 -5 6 -15 14 -21 16 -12 9 -34 -11 -34 -7 0 -6 4 3 10 13 8 12 11 -5
24 -11 9 -15 16 -10 17 6 0 -1 5 -15 10 l-25 8 25 -2 c14 -1 25 -6 24 -12z
m-6247 -17 c-3 -8 -6 -5 -6 6 -1 11 2 17 5 13 3 -3 4 -12 1 -19z m6319 -15
c-3 -4 -6 -1 -6 6 0 7 -4 9 -10 6 -6 -4 -7 1 -3 11 6 15 7 15 15 -1 6 -9 7
-19 4 -22z m-6350 15 c5 -7 3 -8 -6 -3 -10 6 -12 4 -6 -10 5 -15 4 -16 -9 -5
-13 11 -13 15 -3 21 17 11 16 11 24 -3z m6244 -3 c0 -8 -2 -15 -4 -15 -2 0 -6
7 -10 15 -3 8 -1 15 4 15 6 0 10 -7 10 -15z m-6300 -24 c-4 -9 -9 -20 -10 -26
-1 -5 -4 -12 -7 -15 -4 -3 -3 1 1 8 4 6 2 12 -3 12 -6 0 -11 5 -11 11 0 5 5 7
12 3 7 -5 9 -2 6 8 -4 8 0 15 7 15 10 0 11 -5 5 -16z m6377 -10 c-3 -20 -37
-59 -37 -42 0 5 6 14 14 18 14 8 16 12 16 33 0 6 2 10 5 10 3 0 4 -8 2 -19z
m-6292 -1 c3 -6 -1 -7 -9 -4 -18 7 -21 14 -7 14 6 0 13 -4 16 -10z m4632 -10
c7 -8 12 -22 13 -30 0 -8 -6 -4 -13 10 -7 14 -20 24 -29 22 -9 -1 -19 2 -22 7
-10 16 38 8 51 -9z m1688 10 c3 -5 1 -10 -4 -10 -6 0 -11 5 -11 10 0 6 2 10 4
10 3 0 8 -4 11 -10z m-73 -14 c7 4 8 2 4 -4 -3 -6 -16 -9 -27 -7 -16 3 -19 0
-14 -13 5 -13 3 -14 -6 -5 -13 13 -3 37 12 28 5 -4 9 0 10 7 0 10 2 10 6 0 2
-6 10 -9 15 -6z m-6252 -11 c0 -1 -6 -8 -14 -14 -11 -9 -16 -9 -22 0 -5 8 -3
9 6 4 10 -6 12 -4 7 8 -4 11 -2 14 9 10 7 -3 14 -6 14 -8z m4625 -4 c3 -5 0
-13 -6 -17 -7 -4 -9 -3 -5 4 3 5 0 13 -6 15 -9 4 -10 6 -1 6 6 1 14 -3 18 -8z
m1689 -9 c3 -5 -1 -9 -9 -9 -8 0 -12 4 -9 9 3 4 7 8 9 8 2 0 6 -4 9 -8z
m-6707 -28 c-3 -3 -12 -4 -19 -1 -8 3 -5 6 6 6 11 1 17 -2 13 -5z m31 -8 c-7
-8 -15 -12 -17 -11 -5 6 10 25 20 25 5 0 4 -6 -3 -14z m36 -1 c-10 -8 -23 -15
-28 -15 -6 0 -1 7 10 15 10 8 23 15 28 15 6 0 1 -7 -10 -15z m6940 0 c-4 -8
-8 -15 -10 -15 -2 0 -4 7 -4 15 0 8 4 15 10 15 5 0 7 -7 4 -15z m23 -5 c-1
-11 -5 -20 -9 -20 -10 0 -10 4 -2 24 8 22 13 20 11 -4z m-6922 0 c3 -5 1 -10
-4 -10 -6 0 -11 5 -11 10 0 6 2 10 4 10 3 0 8 -4 11 -10z m-112 -27 c-5 -12
-3 -14 7 -8 9 6 11 4 5 -4 -5 -9 -11 -9 -17 -3 -6 6 -7 15 -4 21 11 17 16 13
9 -6z m81 -9 c9 -24 2 -26 -12 -4 -7 11 -8 20 -3 20 5 0 12 -7 15 -16z m6860
-2 c-5 -4 -18 -18 -27 -31 -15 -23 -16 -23 -14 -3 0 11 4 19 8 16 4 -2 9 3 13
11 3 8 11 15 18 15 9 0 9 -3 2 -8z m50 -7 c11 -8 16 -15 10 -15 -5 0 -18 7
-28 15 -11 8 -16 15 -10 15 5 0 18 -7 28 -15z m-6939 -4 c3 -5 0 -13 -6 -17
-8 -4 -9 -3 -5 4 4 7 2 12 -3 12 -6 0 -11 -5 -11 -12 0 -6 -3 -9 -6 -5 -7 7 4
27 16 27 5 0 11 -4 15 -9z m6925 -16 c7 -8 16 -12 21 -9 5 3 9 0 9 -5 0 -15
-5 -14 -42 9 -20 12 -26 20 -17 20 9 0 22 -7 29 -15z m-6900 -15 c0 -5 -2 -10
-4 -10 -3 0 -8 5 -11 10 -3 6 -1 10 4 10 6 0 11 -4 11 -10z m6887 -9 c12 -11
24 -17 29 -13 4 4 4 1 -1 -7 -6 -10 -12 -9 -28 7 l-20 21 -17 -21 c-13 -17
-19 -18 -25 -8 -5 8 -4 11 3 6 6 -3 13 3 17 14 8 25 16 25 42 1z m73 -10 c0
-5 -7 -11 -14 -14 -10 -4 -13 -1 -9 9 6 15 23 19 23 5z m-7035 -19 c-3 -3 -11
0 -18 7 -9 10 -8 11 6 5 10 -3 15 -9 12 -12z m75 8 c-8 -5 -19 -10 -25 -10 -5
0 -3 5 5 10 8 5 20 10 25 10 6 0 3 -5 -5 -10z m4538 -15 c-3 -3 -9 2 -12 12
-6 14 -5 15 5 6 7 -7 10 -15 7 -18z m2937 -515 c3 -5 1 -10 -4 -10 -6 0 -11 5
-11 10 0 6 2 10 4 10 3 0 8 -4 11 -10z m-8210 -120 c-3 -5 -12 -10 -18 -10 -7
0 -6 4 3 10 19 12 23 12 15 0z m8461 -26 c0 -22 -4 -30 -14 -27 -7 3 -11 13
-8 22 5 12 3 12 -8 -2 -8 -11 -13 -27 -11 -36 2 -14 -3 -17 -23 -16 -24 1 -27
5 -27 36 0 18 -3 39 -7 44 -4 7 13 10 46 10 51 0 52 0 52 -31z m-8499 20 c-10
-10 17 -33 28 -24 7 6 11 1 12 -13 0 -12 -1 -16 -4 -9 -4 10 -8 10 -19 1 -8
-7 -17 -9 -21 -5 -3 3 -1 6 7 6 10 0 10 3 -1 16 -12 15 -14 14 -19 -6 -6 -24
-30 -40 -30 -20 0 6 5 8 10 5 6 -3 10 2 10 12 0 17 17 43 29 43 2 0 2 -3 -2
-6z m-57 -32 c0 -4 -5 -13 -12 -20 -9 -9 -9 -12 0 -12 7 0 12 -5 12 -10 0 -6
-8 -5 -20 2 -16 11 -17 14 -5 21 9 4 13 12 10 18 -4 5 -1 9 4 9 6 0 11 -4 11
-8z m79 -42 c-6 -5 -18 -6 -26 -3 -19 8 -16 11 13 11 17 0 22 -3 13 -8z m3786
0 c3 -5 1 -10 -4 -10 -6 0 -11 5 -11 10 0 6 2 10 4 10 3 0 8 -4 11 -10z
m-3815 -21 c0 -5 5 -7 10 -4 6 3 10 1 10 -5 0 -6 4 -9 8 -6 5 3 9 -1 9 -9 0
-11 -4 -12 -13 -4 -7 6 -19 7 -26 3 -7 -4 -10 -4 -6 1 4 4 3 14 -3 22 -9 9 -8
13 0 13 6 0 11 -5 11 -11z m-20 -17 c0 -4 -10 -9 -22 -9 -18 -2 -20 0 -8 7 18
12 30 13 30 2z m3960 -38 c0 -8 -19 -13 -24 -6 -3 5 1 9 9 9 8 0 15 -2 15 -3z
m520 -44 c0 -5 -5 -10 -11 -10 -5 0 -7 5 -4 10 3 6 8 10 11 10 2 0 4 -4 4 -10z
m-4620 -110 c0 -13 -49 -44 -57 -37 -3 4 6 11 21 16 14 6 26 15 26 21 0 5 2
10 5 10 3 0 5 -4 5 -10z m55 0 c-3 -5 -12 -10 -18 -10 -7 0 -6 4 3 10 19 12
23 12 15 0z m8653 -2 c9 -9 12 -9 12 1 0 7 5 9 11 5 8 -4 4 -11 -11 -19 -20
-11 -20 -13 -5 -19 14 -5 15 -9 5 -21 -6 -8 -9 -19 -5 -25 8 -13 -5 -13 -25 0
-8 5 -10 10 -4 10 17 0 25 28 12 36 -6 4 -8 3 -4 -4 3 -6 2 -13 -3 -16 -10 -7
-9 20 2 30 4 4 2 13 -4 21 -14 16 3 17 19 1z m-8762 -10 c-10 -6 -22 -6 -26
-2 -5 5 3 10 18 11 22 1 24 0 8 -9z m94 -20 c0 -6 -6 -5 -15 2 -17 14 -20 1
-5 -18 5 -7 3 -6 -6 2 -9 8 -13 19 -10 25 8 12 36 3 36 -11z m4440 1 c-5 -9
-6 -20 -2 -24 4 -4 1 -6 -7 -3 -22 6 -22 47 0 45 13 -1 15 -5 9 -18z m-4545
-19 c3 -5 2 -10 -4 -10 -5 0 -13 5 -16 10 -3 6 -2 10 4 10 5 0 13 -4 16 -10z
m58 -8 c-1 -5 9 -13 22 -16 24 -6 35 -26 15 -26 -5 0 -10 3 -10 8 0 4 -10 12
-22 17 -24 11 -39 41 -17 33 8 -3 13 -10 12 -16z m60 3 c-3 -9 -8 -14 -10 -11
-3 3 -2 9 2 15 9 16 15 13 8 -4z m8687 -10 c-11 -13 -10 -15 1 -10 10 4 14 -4
15 -30 0 -19 -3 -35 -8 -35 -4 0 -8 5 -8 12 0 6 -10 3 -22 -8 -19 -15 -20 -16
-9 -1 14 18 2 24 -15 7 -7 -7 -10 -4 -9 12 2 23 6 25 38 13 10 -4 17 -3 17 5
0 6 -4 9 -8 6 -5 -3 -9 3 -9 12 0 19 17 45 25 37 3 -2 -1 -11 -8 -20z m50 5
c-18 -12 -30 -13 -30 -2 0 4 10 9 22 9 18 2 20 0 8 -7z m-8815 -30 c-4 -7 18
-22 37 -24 3 -1 10 -4 14 -8 13 -13 -34 0 -60 17 -27 18 -31 27 -19 38 8 9 34
-13 28 -23z m4452 11 c-1 -13 -9 -18 -26 -18 l-25 0 23 18 c13 11 25 19 26 19
2 0 3 -8 2 -19z m4363 -10 c-5 -11 -15 -23 -21 -26 -13 -9 -8 27 6 37 18 14
26 8 15 -11z m-8820 -35 c0 -2 -7 -7 -16 -10 -8 -3 -12 -2 -9 4 6 10 25 14 25
6z m8813 -48 c-5 -7 -9 -34 -8 -60 0 -26 -2 -45 -5 -43 -16 10 -1 115 17 115
3 0 1 -6 -4 -12z m-68 -46 c-3 -3 -11 0 -18 7 -9 10 -8 11 6 5 10 -3 15 -9 12
-12z m105 -6 c0 -3 -4 -8 -10 -11 -5 -3 -10 -1 -10 4 0 6 5 11 10 11 6 0 10
-2 10 -4z m-75 -46 c3 -6 -1 -7 -9 -4 -18 7 -21 14 -7 14 6 0 13 -4 16 -10z
m-8915 -221 c0 -6 -7 -12 -16 -16 -13 -5 -13 -7 -2 -14 11 -7 10 -11 -2 -19
-12 -8 -12 -10 -1 -10 11 0 11 -3 0 -17 -13 -16 -12 -17 4 -4 11 9 17 10 17 2
0 -10 -14 -15 -24 -8 -2 1 -14 -7 -27 -18 -18 -15 -20 -15 -10 -2 7 9 9 17 4
17 -5 0 -9 11 -9 25 0 18 3 21 12 14 17 -14 29 8 15 25 -6 7 -8 16 -4 19 3 4
1 13 -5 20 -7 8 -9 17 -6 20 8 7 54 -22 54 -34z m55 7 c8 3 12 -6 13 -26 0
-16 -3 -30 -8 -30 -4 0 -7 11 -5 25 2 24 1 25 -18 12 -12 -8 -23 -20 -25 -28
-2 -8 3 -5 11 6 14 18 16 18 13 2 -1 -10 -8 -22 -15 -27 -11 -6 -11 -9 0 -13
12 -4 11 -7 -1 -16 -8 -6 -10 -11 -4 -11 7 0 14 -7 17 -14 4 -10 1 -13 -9 -9
-7 3 -14 9 -14 15 0 5 -6 6 -12 2 -9 -5 -9 -2 1 9 8 11 10 22 5 30 -12 16 -11
37 5 66 9 16 16 20 23 13 6 -6 16 -8 23 -6z m15 -78 c0 -5 -4 -6 -10 -3 -5 3
-10 1 -10 -4 0 -6 6 -11 13 -11 8 0 7 -3 -3 -9 -19 -13 -27 -6 -24 21 1 13 3
24 3 25 3 7 31 -11 31 -19z m-90 -42 c0 -3 -4 -8 -10 -11 -5 -3 -10 -1 -10 4
0 6 5 11 10 11 6 0 10 -2 10 -4z m83 -41 c-7 -21 -12 -19 -10 4 0 11 5 18 9
15 4 -3 5 -11 1 -19z m-36 -31 c-3 -3 -12 -4 -19 -1 -8 3 -5 6 6 6 11 1 17 -2
13 -5z m40 0 c-3 -3 -12 -4 -19 -1 -8 3 -5 6 6 6 11 1 17 -2 13 -5z m-115 -31
c-6 -2 -10 -9 -6 -14 3 -5 0 -9 -5 -9 -12 0 -14 13 -4 23 3 4 11 7 17 6 6 0 5
-3 -2 -6z m52 -39 c3 -8 2 -12 -4 -9 -6 3 -10 10 -10 16 0 14 7 11 14 -7z m6
-38 c0 -3 -4 -8 -10 -11 -5 -3 -10 -1 -10 4 0 6 5 11 10 11 6 0 10 -2 10 -4z
m9085 -62 c2 -10 4 -21 6 -24 1 -3 2 -18 3 -35 1 -26 5 -30 26 -28 14 1 19 -1
11 -4 -11 -5 -11 -7 0 -15 10 -7 8 -8 -6 -2 -11 4 -31 7 -44 7 -16 -1 -20 2
-11 7 7 4 9 13 5 19 -4 7 -2 18 4 25 8 10 7 16 -3 25 -8 7 -13 18 -10 26 3 7
1 16 -5 20 -6 3 -11 11 -11 18 0 17 31 -17 35 -39z m-39 -8 c30 -30 32 -35 18
-46 -10 -9 -11 -15 -4 -20 7 -4 3 -13 -10 -25 -11 -10 -20 -13 -20 -7 0 6 5
14 10 17 6 4 7 11 4 17 -4 6 -1 14 5 18 9 5 3 16 -18 36 -29 27 -39 44 -25 44
3 0 21 -15 40 -34z m-9085 1 c-6 -8 -7 -18 -3 -22 4 -5 1 -5 -6 -1 -10 6 -10
11 -1 22 6 8 14 14 16 14 3 0 0 -6 -6 -13z m9061 -14 c18 -20 18 -54 0 -76
-10 -12 -10 -16 2 -20 9 -4 18 -2 21 3 3 5 12 7 20 4 23 -9 8 -23 -20 -19 -29
3 -44 -12 -21 -21 9 -3 16 -11 16 -16 0 -6 -7 -7 -16 -4 -8 3 -12 2 -9 -4 3
-6 0 -10 -7 -10 -9 0 -9 -3 2 -10 8 -5 12 -10 7 -10 -4 0 -1 -13 8 -30 19 -36
19 -35 -5 -37 -12 -1 -20 4 -20 13 0 9 5 12 12 8 7 -5 8 -3 2 7 -10 17 -15 38
-14 59 0 8 0 37 1 63 0 39 3 48 14 43 8 -3 15 -3 15 0 0 2 -10 9 -22 14 -18 7
-19 9 -5 9 9 1 17 6 17 12 0 5 -6 7 -12 3 -7 -4 -10 -4 -6 1 4 4 3 14 -3 22
-17 20 5 16 23 -4z m-9067 -42 c3 -5 2 -12 -3 -15 -5 -3 -9 1 -9 9 0 17 3 19
12 6z m9128 -89 c9 -2 17 3 17 10 0 8 5 6 11 -5 6 -9 14 -15 18 -13 9 6 7 -31
-2 -40 -4 -4 -2 -13 4 -21 12 -13 11 -14 -28 -17 -9 0 -18 5 -21 12 -4 14 19
12 30 -3 4 -5 6 0 5 13 0 12 -6 22 -12 22 -5 0 -3 5 5 11 13 9 13 10 0 6 -8
-2 -14 -11 -12 -19 1 -8 -5 -15 -13 -15 -10 0 -14 6 -10 16 10 26 10 29 0 28
-5 -1 -9 -8 -7 -17 2 -12 1 -12 -6 -1 -7 9 -12 10 -16 2 -4 -6 -2 -11 3 -11 6
0 11 -5 11 -11 0 -5 -4 -8 -8 -5 -5 3 -9 -1 -9 -9 0 -14 10 -19 30 -16 4 0 7
-4 7 -10 0 -6 -7 -8 -16 -5 -15 6 -15 4 0 -19 10 -14 12 -25 6 -25 -6 0 -8 -5
-4 -12 4 -7 3 -8 -5 -4 -6 4 -9 12 -6 17 4 5 2 9 -3 9 -10 0 -26 -29 -24 -42
1 -5 -5 -8 -13 -8 -20 0 -19 20 3 36 16 13 16 14 -3 7 -11 -3 -17 -3 -13 1 3
4 14 9 25 10 11 2 17 10 15 22 -2 11 -4 25 -4 32 -1 6 -5 12 -10 12 -11 0 -6
23 7 32 6 4 11 13 11 20 4 32 4 33 12 23 4 -5 15 -11 25 -13z m-9126 -61 c0
-11 -5 -18 -9 -15 -4 3 -5 11 -1 19 7 21 12 19 10 -4z m83 -31 c0 -5 -2 -10
-4 -10 -3 0 -8 5 -11 10 -3 6 -1 10 4 10 6 0 11 -4 11 -10z m9093 -23 c4 3 7
1 7 -5 0 -15 -17 -16 -25 -2 -4 6 -11 8 -16 4 -5 -3 -7 -10 -3 -15 3 -5 10 -7
15 -4 5 4 9 1 9 -5 0 -6 5 -8 13 -4 8 5 8 2 -2 -9 -10 -13 -11 -20 -2 -31 14
-17 1 -28 -18 -17 -14 9 -14 20 2 39 6 7 6 12 1 11 -20 -3 -35 2 -29 10 3 5 0
13 -6 17 -9 5 -6 11 7 21 16 12 20 12 30 -2 6 -8 14 -12 17 -8z m-9177 -13 c1
-9 0 -13 -4 -10 -3 4 -7 14 -8 22 -1 9 0 13 4 10 3 -4 7 -14 8 -22z m9094 -55
c-11 -7 -5 -8 20 -5 19 3 29 3 23 0 -7 -3 -13 -10 -13 -15 0 -6 3 -8 8 -5 4 2
16 -2 27 -10 10 -8 15 -14 9 -14 -5 0 -2 -5 6 -11 12 -8 11 -9 -5 -7 -14 2
-19 -2 -17 -14 2 -12 -2 -16 -12 -12 -18 7 -17 24 4 42 10 9 10 11 1 6 -7 -3
-17 -1 -21 7 -5 7 -16 14 -24 15 -13 2 -12 -3 5 -27 11 -16 16 -29 10 -29 -5
0 -19 14 -31 30 -12 17 -17 30 -12 30 6 0 9 8 7 18 -4 24 5 36 19 22 8 -8 7
-13 -4 -21z m50 17 c0 -2 -7 -6 -15 -10 -8 -3 -15 -1 -15 4 0 6 7 10 15 10 8
0 15 -2 15 -4z m-9160 -26 c0 -5 -5 -10 -11 -10 -5 0 -7 5 -4 10 3 6 8 10 11
10 2 0 4 -4 4 -10z m9075 -9 c-3 -5 -1 -12 4 -15 10 -7 3 -46 -9 -46 -4 0 -7
16 -8 35 -1 19 3 35 9 35 6 0 8 -4 4 -9z m-8962 -16 c4 -8 3 -16 -1 -19 -4 -3
-9 4 -9 15 -2 23 3 25 10 4z m-74 -8 c8 -10 7 -14 -2 -14 -8 0 -14 6 -14 14 0
7 1 13 2 13 2 0 8 -6 14 -13z m41 -7 c0 -5 -2 -10 -4 -10 -3 0 -8 5 -11 10 -3
6 -1 10 4 10 6 0 11 -4 11 -10z m9092 -54 c5 3 7 12 4 20 -3 8 0 11 10 7 13
-5 13 -8 -2 -24 -15 -16 -15 -19 -2 -24 11 -4 14 -16 11 -38 -2 -18 -5 -45 -7
-62 -2 -20 -17 -41 -47 -67 -24 -20 -45 -35 -48 -32 -3 3 1 9 9 14 11 7 11 10
2 10 -7 0 -15 -6 -18 -14 -3 -8 -12 -12 -20 -9 -12 4 -11 8 6 20 11 8 20 22
19 31 0 12 -3 11 -9 -5 -13 -31 -19 -29 -18 6 1 15 -2 33 -5 39 -4 5 0 12 8
16 8 3 15 12 15 21 0 8 5 15 11 15 5 0 7 -4 4 -10 -4 -6 1 -7 12 -4 12 4 10 0
-7 -15 -14 -11 -20 -21 -15 -21 6 0 3 -5 -5 -11 -13 -9 -13 -10 0 -6 8 2 14 9
13 14 -1 6 9 16 23 23 18 10 23 19 18 34 -6 20 -5 20 12 4 17 -17 17 -19 -14
-49 -18 -17 -32 -35 -32 -40 0 -5 16 7 35 27 39 39 40 45 23 62 -7 7 -8 12 -2
12 6 0 15 -5 20 -10 7 -7 11 -6 11 4 0 8 -4 13 -8 10 -4 -2 -10 0 -14 6 -3 5
0 10 7 10 8 1 6 6 -6 15 -10 8 -23 12 -27 9 -5 -3 -9 1 -10 8 0 7 -4 4 -8 -6
-4 -11 -15 -20 -25 -22 -12 -2 -16 2 -12 13 3 8 6 18 6 21 0 4 4 1 9 -6 7 -11
9 -10 14 3 5 10 3 14 -5 9 -7 -5 -8 -3 -3 5 5 10 2 9 -13 0 -12 -7 -18 -17
-16 -21 3 -4 0 -8 -5 -8 -16 0 -13 18 7 38 16 17 18 17 51 -5 18 -13 38 -20
43 -17z m-9139 -1 c-7 -21 -12 -19 -10 4 0 11 5 18 9 15 4 -3 5 -11 1 -19z
m79 3 c-6 -6 -22 -13 -34 -15 -18 -2 -19 -1 -8 6 8 5 17 8 21 5 4 -2 10 0 14
6 3 5 9 10 13 10 3 0 1 -5 -6 -12z m9042 -43 c-3 -8 -11 -13 -17 -12 -7 1 -11
-6 -11 -15 1 -14 -2 -15 -16 -8 -10 6 -26 7 -34 4 -12 -5 -16 0 -16 21 0 24 2
26 17 14 9 -8 19 -12 22 -10 3 2 15 9 25 17 22 15 38 10 30 -11z m-9096 -10
c-3 -3 -9 2 -12 12 -6 14 -5 15 5 6 7 -7 10 -15 7 -18z m38 5 c0 -12 -4 -16
-9 -11 -5 5 -6 14 -3 20 10 15 12 14 12 -9z m21 -35 c0 -8 -4 -12 -8 -9 -5 3
-17 -4 -29 -16 -11 -11 -20 -16 -20 -11 0 7 43 46 56 51 0 0 1 -7 1 -15z m-12
-34 c-19 -8 -19 -8 0 -19 11 -6 16 -11 10 -12 -5 0 -16 4 -24 9 -17 11 -6 31
17 30 14 0 13 -2 -3 -8z m-17 -58 c-7 -9 -7 -13 0 -13 6 0 15 8 21 18 9 15 10
15 8 -5 0 -12 -5 -19 -9 -17 -4 3 -8 1 -8 -5 0 -5 6 -11 13 -14 6 -2 -1 -4
-17 -4 -19 0 -24 2 -15 8 11 6 10 9 -4 15 -9 3 -17 10 -17 16 0 5 5 6 10 3 6
-3 10 -1 10 4 0 6 -4 11 -10 11 -5 0 -10 5 -10 10 0 6 8 5 19 -2 15 -9 17 -15
9 -25z m-83 -60 c-12 -32 -10 -38 13 -36 13 2 22 -3 22 -12 0 -7 4 -17 10 -20
5 -3 7 0 4 8 -3 8 0 18 6 22 8 5 8 10 0 20 -8 10 -8 15 1 20 6 4 15 1 20 -6 5
-8 9 -9 9 -3 0 6 7 11 15 11 9 0 14 -4 13 -9 -2 -5 -6 -8 -10 -6 -3 2 -15 -6
-27 -16 -15 -14 -18 -23 -11 -31 8 -9 6 -14 -5 -19 -36 -14 -97 42 -75 69 8
10 7 14 -2 18 -8 3 -6 6 6 6 13 1 16 -4 11 -16z m39 -100 c4 -9 0 -23 -9 -32
-14 -14 -16 -14 -13 -1 2 8 8 18 13 22 6 5 5 8 -2 8 -7 0 -13 5 -13 10 0 16
17 11 24 -7z m21 -33 c-10 -11 -20 -18 -23 -15 -7 6 18 35 31 35 5 0 2 -9 -8
-20z m185 -334 c0 -2 -8 -10 -17 -17 -16 -13 -17 -12 -4 4 13 16 21 21 21 13z
m8690 0 c0 -2 -7 -7 -16 -10 -8 -3 -12 -2 -9 4 6 10 25 14 25 6z m46 -7 c4 -8
9 -7 15 2 4 7 10 11 14 8 3 -3 -5 -14 -17 -25 -13 -10 -20 -15 -16 -10 4 5 0
15 -10 22 -9 8 -12 14 -5 14 6 0 15 -5 19 -11z m-18 -29 c7 -11 10 -20 7 -20
-3 0 -14 9 -25 20 -12 12 -15 20 -7 20 7 0 18 -9 25 -20z m75 6 c4 -10 1 -13
-7 -10 -7 3 -18 -2 -25 -10 -10 -12 -10 -19 2 -36 7 -11 16 -17 19 -15 3 3 8
-1 12 -10 3 -10 2 -14 -5 -10 -17 11 -59 13 -65 4 -3 -5 -13 -9 -22 -8 -12 0
-10 3 7 10 23 9 23 10 5 30 -15 16 -15 19 -2 14 9 -4 19 -13 22 -21 3 -8 10
-14 16 -14 8 0 7 6 0 20 -11 20 -8 32 15 57 14 16 22 16 28 -1z m-98 -16 c3
-5 1 -10 -4 -10 -6 0 -11 5 -11 10 0 6 2 10 4 10 3 0 8 -4 11 -10z m-17 -19
c11 -6 10 -10 -4 -15 -9 -3 -19 -4 -22 -1 -3 3 1 5 9 5 11 0 11 2 -1 10 -8 5
-10 10 -5 10 6 0 16 -4 23 -9z m115 -5 c4 -10 1 -13 -9 -9 -15 6 -19 23 -5 23
5 0 11 -7 14 -14z m-8846 -11 c0 -8 -4 -12 -9 -9 -5 3 -6 10 -3 15 9 13 12 11
12 -6z m-37 -1 c0 -8 -19 -13 -24 -6 -3 5 1 9 9 9 8 0 15 -2 15 -3z m8795 -14
c3 -5 1 -10 -4 -10 -6 0 -11 5 -11 10 0 6 2 10 4 10 3 0 8 -4 11 -10z m-8785
-65 c-7 -8 -17 -15 -23 -15 -6 0 -2 8 9 19 22 21 33 19 14 -4z m104 -36 c-2
-17 -6 -35 -9 -40 -4 -5 0 -9 7 -9 10 0 10 -2 0 -9 -17 -10 -17 -21 -3 -31 7
-3 -20 -6 -59 -5 -69 1 -76 3 -67 28 3 8 8 9 18 2 8 -5 3 0 -11 13 -15 14 -18
20 -8 16 13 -4 16 -1 15 15 -1 12 -6 21 -12 21 -5 0 6 10 25 22 19 12 40 21
47 20 6 -2 15 2 18 8 13 21 43 -18 39 -51z m8506 -268 c0 -5 -7 -12 -16 -15
-14 -5 -15 -4 -4 9 14 17 20 19 20 6z m54 -3 c-3 -4 0 -8 5 -8 6 0 11 -5 11
-11 0 -5 -4 -8 -9 -5 -5 4 -11 3 -14 -1 -2 -5 -3 -3 -1 3 1 6 -2 16 -7 21 -6
6 -4 10 5 10 8 0 13 -4 10 -9z m50 -7 c3 -5 -1 -14 -9 -21 -10 -9 -15 -9 -15
-1 0 6 6 11 13 11 8 0 7 4 -3 10 -9 6 -10 10 -3 10 6 0 14 -4 17 -9z m-8560
-9 c3 -5 -1 -9 -9 -9 -8 0 -15 4 -15 9 0 4 4 8 9 8 6 0 12 -4 15 -8z m8473 -4
c-9 -7 -23 -22 -32 -33 l-15 -20 7 20 c7 21 32 44 47 45 6 0 2 -6 -7 -12z
m-8373 -16 c3 -5 -1 -9 -9 -9 -8 0 -12 4 -9 9 3 4 7 8 9 8 2 0 6 -4 9 -8z
m8380 -10 c-6 -4 -10 -15 -8 -25 1 -9 -2 -15 -7 -11 -5 3 -9 1 -9 -4 0 -16 13
-22 27 -11 17 15 17 2 -1 -16 -11 -12 -15 -10 -27 11 -11 22 -11 27 1 34 8 6
11 10 6 10 -5 0 -3 7 4 15 7 9 15 13 19 10 3 -3 1 -9 -5 -13z m-8479 -11 c-9
-8 -36 -10 -30 -2 2 4 11 8 20 8 8 0 13 -3 10 -6z m32 -6 c0 -8 -4 -12 -9 -9
-5 3 -6 10 -3 15 9 13 12 11 12 -6z m38 6 c3 -5 2 -12 -3 -15 -5 -3 -9 1 -9 9
0 17 3 19 12 6z m8428 -6 c-3 -9 -8 -14 -10 -11 -3 3 -2 9 2 15 9 16 15 13 8
-4z m52 -55 c12 -14 13 -20 4 -12 -9 6 -18 9 -21 7 -3 -3 -15 -8 -28 -10 -18
-3 -20 -2 -10 10 6 8 19 11 28 8 15 -6 15 -5 0 14 -10 11 -18 23 -18 27 0 8
13 -5 45 -44z m-100 -1 c11 -16 1 -19 -13 -3 -7 8 -8 14 -3 14 5 0 13 -5 16
-11z m-85 -193 c0 -2 -8 -10 -17 -17 -16 -13 -17 -12 -4 4 13 16 21 21 21 13z
m-185 -344 c-17 -15 -18 -15 -6 0 7 9 9 23 5 30 -6 10 -4 11 7 0 11 -10 10
-15 -6 -30z m25 -17 c-7 -8 -17 -15 -23 -15 -6 0 -2 7 9 15 25 19 30 19 14 0z
m-34 -51 c1 -9 0 -13 -4 -10 -3 4 -7 14 -8 22 -1 9 0 13 4 10 3 -4 7 -14 8
-22z m79 7 c3 -5 2 -12 -3 -15 -5 -3 -9 1 -9 9 0 17 3 19 12 6z m-7781 -223
c-5 -8 -2 -9 12 -4 10 4 15 4 11 0 -4 -4 1 -12 10 -19 13 -9 13 -14 3 -20 -9
-6 -11 -4 -5 5 6 10 4 12 -9 7 -9 -4 -15 -3 -12 2 3 5 -1 12 -10 15 -13 5 -12
26 2 26 3 0 2 -5 -2 -12z m87 -15 c13 -16 12 -17 -3 -4 -10 7 -18 15 -18 17 0
8 8 3 21 -13z m-81 -41 c0 -5 -7 -9 -15 -9 -8 0 -12 4 -9 9 3 4 9 8 15 8 5 0
9 -4 9 -8z m75 -2 c3 -5 1 -10 -4 -10 -6 0 -11 5 -11 10 0 6 2 10 4 10 3 0 8
-4 11 -10z m-32 -30 c-3 -12 -8 -19 -11 -16 -5 6 5 36 12 36 2 0 2 -9 -1 -20z
m-66 -12 c-3 -8 -6 -5 -6 6 -1 11 2 17 5 13 3 -3 4 -12 1 -19z m40 -2 c0 -8
-6 -12 -15 -9 -11 5 -11 7 0 14 7 5 13 9 14 9 0 0 1 -6 1 -14z m163 -217 c-19
-16 -36 -26 -39 -23 -3 3 5 15 19 26 24 20 24 20 3 14 -14 -5 -23 -3 -23 3 0
6 17 10 37 9 l37 -1 -34 -28z m97 -136 c-4 -3 -2 -12 5 -20 8 -11 7 -12 -6 -7
-18 7 -22 34 -4 34 6 0 8 -3 5 -7z m53 -27 c0 -2 -7 -7 -16 -10 -8 -3 -12 -2
-9 4 6 10 25 14 25 6z m50 -14 c0 -4 -10 -9 -22 -9 -18 -2 -20 0 -8 7 18 12
30 13 30 2z m-63 -31 c-10 -12 -9 -14 4 -9 9 4 16 1 16 -7 0 -10 -5 -11 -17
-5 -10 5 -20 7 -23 4 -3 -3 -8 0 -13 7 -5 8 -3 10 6 4 9 -6 12 -4 8 6 -4 10 1
15 13 15 14 0 16 -3 6 -15z m83 -26 c0 -2 -5 -7 -12 -11 -7 -5 -8 -3 -3 6 6 9
4 12 -7 8 -8 -4 -15 0 -15 7 0 10 5 11 19 4 10 -5 18 -12 18 -14z m6680 -145
c0 -5 -2 -10 -4 -10 -3 0 -8 5 -11 10 -3 6 -1 10 4 10 6 0 11 -4 11 -10z
m-6273 -391 c-9 -15 -13 -15 -33 -3 -20 14 -21 13 -21 -11 0 -20 2 -23 13 -14
9 7 14 8 14 1 0 -6 -6 -13 -12 -16 -10 -5 -10 -7 0 -12 6 -3 12 -10 12 -16 0
-6 -6 -6 -15 2 -12 10 -18 10 -30 0 -9 -7 -15 -8 -15 -2 0 5 6 12 14 15 9 3
12 17 10 36 -4 35 10 48 32 30 8 -6 18 -8 22 -4 4 4 1 10 -5 12 -7 3 -13 9
-13 14 0 5 9 4 19 -3 15 -9 17 -15 8 -29z m36 4 c-17 -14 -17 -14 2 -9 20 6
20 6 1 -9 -11 -8 -25 -15 -30 -15 -6 0 -4 5 4 10 8 5 11 10 6 10 -5 0 -3 6 3
13 6 8 8 17 4 21 -4 4 0 4 10 0 17 -6 17 -7 0 -21z m6014 -35 c1 -25 -1 -28
-9 -15 -5 9 -14 17 -21 17 -7 0 -6 -4 3 -10 8 -5 11 -12 7 -17 -5 -4 -12 -1
-17 7 -7 11 -3 20 13 32 12 10 22 18 22 18 0 0 1 -14 2 -32z m-6060 -30 c-3
-7 -5 -2 -5 12 0 14 2 19 5 13 2 -7 2 -19 0 -25z m59 13 c0 -11 -5 -17 -13
-14 -17 6 -17 20 0 26 6 3 12 6 12 6 1 1 1 -7 1 -18z m-5 -38 c12 -16 12 -17
-1 -7 -8 6 -22 14 -30 17 -13 5 -12 6 1 6 9 1 23 -7 30 -16z m140 -56 c-10 -9
-11 -8 -5 6 3 10 9 15 12 12 3 -3 0 -11 -7 -18z m5662 11 c-2 -5 -10 -8 -18
-8 -8 0 -16 3 -18 8 -3 4 5 7 18 7 13 0 21 -3 18 -7z m49 -12 c7 4 8 2 4 -5
-10 -15 -26 -4 -25 17 1 15 2 15 6 -1 2 -9 9 -14 15 -11z m-90 -25 c-3 -16 0
-21 9 -16 8 5 10 4 5 -4 -11 -17 -29 -2 -23 20 3 11 -1 20 -12 23 -10 3 -9 4
4 3 15 -2 19 -9 17 -26z m61 16 c3 -8 2 -20 -3 -26 -5 -9 -7 -4 -7 13 0 29 2
32 10 13z m-79 -43 c3 -8 2 -12 -4 -9 -6 3 -10 10 -10 16 0 14 7 11 14 -7z
m-5677 -9 c0 -8 -4 -12 -9 -9 -5 3 -6 10 -3 15 9 13 12 11 12 -6z m5769 -8 c4
-3 -4 -4 -16 -2 -30 6 -40 16 -12 12 12 -2 24 -6 28 -10z m-41 -10 c15 -12 16
-15 4 -22 -8 -5 -10 -4 -6 0 4 5 -3 15 -15 22 -13 7 -18 12 -12 13 5 0 18 -6
29 -13z m-5724 -24 c13 -16 12 -17 -3 -4 -10 7 -18 15 -18 17 0 8 8 3 21 -13z
m5557 -88 c-3 -3 -9 2 -12 12 -6 14 -5 15 5 6 7 -7 10 -15 7 -18z m-38 9 c0
-8 -19 -13 -24 -6 -3 5 1 9 9 9 8 0 15 -2 15 -3z m84 -2 c3 -5 -1 -9 -9 -9 -8
0 -12 4 -9 9 3 4 7 8 9 8 2 0 6 -4 9 -8z m16 -56 c0 -3 -4 -8 -10 -11 -5 -3
-10 -1 -10 4 0 6 5 11 10 11 6 0 10 -2 10 -4z m-684 -668 c5 4 8 5 7 3 -2 -2
6 -11 18 -19 15 -10 17 -17 9 -27 -8 -9 -6 -14 6 -19 11 -4 14 -12 9 -24 -4
-9 -8 -23 -8 -30 0 -8 -7 -10 -16 -6 -9 3 -32 7 -51 8 -34 1 -35 2 -35 46 -1
60 10 83 34 71 10 -6 22 -7 27 -3z m78 -3 c-4 -8 -10 -12 -15 -9 -11 6 -2 24
11 24 5 0 7 -7 4 -15z m-4198 -107 c-2 -20 -36 -26 -36 -7 0 5 4 8 9 4 5 -3
12 -1 16 5 8 14 14 13 11 -2z m3981 -83 c6 -11 16 -21 22 -21 24 -3 24 -4 7
-17 -16 -12 -16 -14 -3 -14 19 0 31 24 17 32 -14 9 -12 22 4 22 18 0 15 -49
-4 -65 -8 -7 -10 -11 -5 -10 6 2 10 -1 10 -7 0 -19 -23 -13 -29 9 -6 21 -7 21
-21 -4 -13 -24 -14 -24 -12 -3 1 12 7 25 14 27 19 7 6 32 -17 33 -11 1 -18 -2
-15 -7 3 -5 1 -11 -4 -14 -10 -7 -9 19 1 30 4 3 4 12 1 20 -8 22 20 13 34 -11z
m-3700 -125 c-6 -22 3 -26 21 -8 20 20 48 17 49 -6 1 -12 -1 -15 -4 -8 -3 6
-9 10 -14 6 -5 -3 -9 0 -9 7 0 8 -7 6 -19 -5 -24 -21 -41 -14 -34 14 3 11 8
20 10 20 3 0 3 -9 0 -20z m-22 -30 c3 -5 1 -10 -4 -10 -6 0 -11 5 -11 10 0 6
2 10 4 10 3 0 8 -4 11 -10z m55 -10 c-8 -5 -19 -10 -25 -10 -5 0 -3 5 5 10 8
5 20 10 25 10 6 0 3 -5 -5 -10z m30 -10 c0 -5 -6 -10 -13 -10 -7 0 -13 -9 -14
-20 -1 -11 3 -19 9 -17 6 1 13 -5 15 -13 4 -12 3 -12 -5 -2 -5 8 -13 13 -18
13 -16 -2 -12 39 5 49 20 12 21 12 21 0z m-59 -39 c-11 -20 -41 -19 -41 1 0 6
8 4 17 -3 15 -12 16 -12 10 4 -4 11 -3 16 3 12 6 -3 10 -1 10 6 0 7 3 10 6 7
3 -4 1 -16 -5 -27z m74 9 c3 -5 1 -10 -4 -10 -6 0 -11 5 -11 10 0 6 2 10 4 10
3 0 8 -4 11 -10z m3419 -42 c-3 -5 -12 -4 -20 3 -7 6 -11 15 -8 21 3 5 12 4
20 -3 7 -6 11 -15 8 -21z m-3534 8 c0 -2 -7 -7 -16 -10 -8 -3 -12 -2 -9 4 6
10 25 14 25 6z m183 -73 c-5 -12 -3 -14 8 -8 8 5 11 4 6 0 -4 -5 -14 -10 -22
-11 -12 -2 -12 2 -5 17 13 23 22 25 13 2z m87 -28 c0 -2 -6 -8 -13 -14 -10 -8
-14 -7 -14 2 0 8 6 14 14 14 7 0 13 -1 13 -2z m2990 -81 c0 -8 -19 -13 -24 -6
-3 5 1 9 9 9 8 0 15 -2 15 -3z m61 -15 c5 -8 9 -18 8 -24 0 -5 -5 0 -12 13 -7
12 -16 20 -19 17 -3 -4 -9 -2 -12 3 -3 6 1 9 10 8 8 -1 20 -9 25 -17z m-94 -9
c5 -20 7 -20 24 -4 11 10 21 15 23 13 2 -2 -7 -12 -20 -22 -23 -17 -24 -17
-31 0 -4 10 -11 21 -17 25 -7 5 -6 8 2 8 8 0 16 -9 19 -20z m73 -10 c0 -5 -7
-10 -15 -10 -9 0 -12 -6 -9 -17 5 -15 4 -16 -5 -3 -9 13 -11 12 -12 -5 -1 -11
-1 -25 0 -32 2 -19 -16 -24 -29 -8 -13 15 -4 39 11 30 5 -4 9 1 9 9 0 8 10 22
22 30 26 19 28 19 28 6z m-2965 -10 c3 -5 1 -10 -4 -10 -6 0 -11 5 -11 10 0 6
2 10 4 10 3 0 8 -4 11 -10z m36 -7 c13 -16 12 -17 -3 -4 -17 13 -22 21 -14 21
2 0 10 -8 17 -17z m44 8 c3 -5 2 -12 -3 -15 -5 -3 -9 1 -9 9 0 17 3 19 12 6z
m2799 -31 c-6 -6 -10 -3 -10 10 0 13 4 16 10 10 7 -7 7 -13 0 -20z m120 8 c-3
-4 -11 -5 -19 -1 -21 7 -19 12 4 10 11 0 18 -5 15 -9z m-2994 -2 c0 -2 -8 -10
-17 -17 -16 -13 -17 -12 -4 4 13 16 21 21 21 13z m2974 -15 c3 -5 -6 -8 -20
-8 -19 0 -22 2 -13 8 18 11 26 11 33 0z m16 -38 c-11 -17 -11 -17 -6 0 3 10 6
24 7 30 0 9 2 9 5 0 3 -7 0 -20 -6 -30z m-32 10 c-10 -2 -18 -9 -18 -14 0 -5
-5 -9 -11 -9 -8 0 -8 5 1 15 7 8 20 14 29 14 13 -1 13 -2 -1 -6z m-218 -47 c0
-2 -7 -7 -16 -10 -8 -3 -12 -2 -9 4 6 10 25 14 25 6z m56 -18 c-10 -6 -22 -6
-26 -2 -5 5 3 10 18 11 22 1 24 0 8 -9z m-53 -29 c-8 -8 -13 -7 -18 2 -6 8 -4
10 5 4 10 -6 12 -4 6 11 -6 15 -5 17 5 7 9 -10 10 -16 2 -24z m-32 -32 c-10
-9 -11 -8 -5 6 3 10 9 15 12 12 3 -3 0 -11 -7 -18z m69 13 c0 -5 -4 -10 -10
-10 -5 0 -10 5 -10 10 0 6 5 10 10 10 6 0 10 -4 10 -10z m24 -16 c3 -8 2 -12
-4 -9 -6 3 -10 10 -10 16 0 14 7 11 14 -7z m-44 -9 c0 -1 -7 -8 -15 -15 -13
-11 -14 -10 -9 5 6 14 4 16 -6 10 -8 -5 -11 -4 -6 3 5 9 36 7 36 -3z m-2600
-9 c0 -2 -7 -7 -16 -10 -8 -3 -12 -2 -9 4 6 10 25 14 25 6z m2622 -13 c-6 -2
-9 -10 -6 -15 4 -7 2 -8 -5 -4 -13 9 -5 26 12 25 9 0 8 -2 -1 -6z m-47 -21
c-3 -3 -11 0 -18 7 -9 10 -8 11 6 5 10 -3 15 -9 12 -12z m-123 -47 c2 3 5 -2
5 -10 0 -19 0 -19 -23 7 -12 14 -13 18 -3 10 9 -6 18 -10 21 -7z m-2291 -42
c13 -16 12 -17 -3 -4 -17 13 -22 21 -14 21 2 0 10 -8 17 -17z m2335 -9 c1 -9
0 -13 -4 -10 -3 4 -7 14 -8 22 -1 9 0 13 4 10 3 -4 7 -14 8 -22z m-216 -98 c0
-2 -8 -10 -17 -17 -16 -13 -17 -12 -4 4 13 16 21 21 21 13z m-25 -45 c3 -5 2
-12 -3 -15 -5 -3 -9 1 -9 9 0 17 3 19 12 6z m79 -57 c3 -8 2 -12 -4 -9 -6 3
-10 10 -10 16 0 14 7 11 14 -7z m-197 -66 c2 -17 0 -19 -7 -8 -5 8 -6 18 -4
22 8 12 10 10 11 -14z m78 13 c3 -5 2 -12 -3 -15 -5 -3 -9 1 -9 9 0 17 3 19
12 6z m-1765 -17 c0 -8 -19 -13 -24 -6 -3 5 1 9 9 9 8 0 15 -2 15 -3z m1684
-66 c-3 -4 -11 -5 -19 -1 -21 7 -19 12 4 10 11 0 18 -5 15 -9z m-474 -372 c0
-3 -4 -8 -10 -11 -5 -3 -10 -1 -10 4 0 6 5 11 10 11 6 0 10 -2 10 -4z"/>
<path d="M6894 9491 l-22 -18 22 -13 c30 -20 51 -18 51 5 0 11 4 27 10 35 7
12 6 13 -6 3 -9 -8 -19 -9 -25 -3 -5 5 -18 2 -30 -9z m42 -25 c2 -15 -12 -16
-34 -2 -10 6 -10 11 -1 22 13 16 31 6 35 -20z"/>
<path d="M6906 9481 c-4 -5 -2 -12 3 -15 5 -4 12 -2 15 3 4 5 2 12 -3 15 -5 4
-12 2 -15 -3z"/>
<path d="M3105 9450 c-3 -5 -8 -20 -10 -31 -4 -22 -4 -22 20 1 13 13 22 27 19
31 -7 12 -21 11 -29 -1z m25 -4 c0 -2 -7 -9 -15 -16 -13 -11 -14 -10 -9 4 5
14 24 23 24 12z"/>
<path d="M3034 9404 c-18 -14 -18 -15 4 -4 12 6 22 13 22 15 0 8 -5 6 -26 -11z"/>
<path d="M9215 8399 c0 -26 4 -36 14 -34 8 1 15 9 17 19 4 25 25 47 38 39 6
-3 7 -2 3 3 -4 4 -23 9 -40 9 -31 1 -32 -1 -32 -36z m29 6 c-8 -12 -11 -25 -7
-30 5 -4 3 -5 -3 -2 -6 3 -10 16 -8 29 3 27 1 25 18 25 12 0 12 -3 0 -22z"/>
<path d="M580 8050 c0 -5 5 -10 11 -10 5 0 7 5 4 10 -3 6 -8 10 -11 10 -2 0
-4 -4 -4 -10z"/>
<path d="M418 7658 c8 -10 10 -23 6 -30 -6 -9 -3 -9 9 1 10 8 16 14 15 15 -2
1 -12 8 -23 16 -18 14 -19 14 -7 -2z"/>
<path d="M407 7563 c3 -7 6 -13 8 -13 2 0 5 6 8 13 3 8 -1 14 -8 14 -7 0 -11
-6 -8 -14z"/>
<path d="M471 7627 c-13 -21 -12 -21 5 -5 10 10 16 20 13 22 -3 3 -11 -5 -18
-17z"/>
<path d="M9546 6695 c-21 -19 -34 -35 -29 -35 11 0 40 25 62 53 20 26 10 20
-33 -18z"/>
<path d="M9525 6800 c-4 -6 -11 -7 -17 -4 -7 4 -8 2 -4 -5 6 -9 11 -9 22 0 14
11 18 19 10 19 -3 0 -8 -5 -11 -10z"/>
<path d="M641 5987 c-6 -8 -8 -17 -4 -21 4 -4 0 -4 -10 0 -9 3 -14 11 -11 18
3 6 -3 1 -14 -11 -11 -12 -22 -20 -24 -18 -10 11 -1 -55 10 -68 7 -7 10 -16 7
-19 -3 -2 12 -4 33 -3 35 1 37 3 38 33 1 18 2 33 4 35 1 1 3 12 4 25 3 29 -17
47 -33 29z m24 -24 c0 -10 -3 -23 -6 -28 -3 -6 -5 -22 -4 -36 1 -21 -3 -26
-20 -25 -30 2 -52 21 -50 43 1 20 24 64 25 48 0 -6 9 -11 21 -12 14 -1 19 3
16 12 -3 7 -3 16 0 19 10 9 20 -2 18 -21z"/>
<path d="M599 5946 c-7 -7 -3 -48 5 -54 19 -14 41 -8 41 13 0 11 4 27 10 35 8
13 7 13 -8 1 -9 -7 -17 -9 -17 -4 0 7 -25 14 -31 9z m37 -39 c1 -9 -5 -14 -14
-13 -8 2 -16 12 -17 24 -1 16 2 19 13 13 9 -5 16 -16 18 -24z"/>
<path d="M556 5872 c-3 -5 1 -9 9 -9 8 0 12 4 9 9 -3 4 -7 8 -9 8 -2 0 -6 -4
-9 -8z"/>
<path d="M7015 2580 c-3 -5 -2 -10 4 -10 5 0 13 5 16 10 3 6 2 10 -4 10 -5 0
-13 -4 -16 -10z"/>
<path d="M7061 2564 c12 -15 11 -16 -6 -11 -26 8 -55 -7 -31 -16 9 -4 13 -13
10 -20 -3 -8 1 -17 10 -20 8 -3 17 1 20 10 4 10 14 13 28 10 16 -5 18 -3 9 6
-9 9 -16 9 -31 -1 -33 -21 -35 -13 -4 20 16 17 23 28 17 24 -7 -4 -13 -2 -13
3 0 6 -5 11 -11 11 -8 0 -7 -6 2 -16z m-11 -24 c0 -5 -2 -10 -4 -10 -3 0 -8 5
-11 10 -3 6 -1 10 4 10 6 0 11 -4 11 -10z"/>
<path d="M7075 2500 c-3 -5 -1 -10 4 -10 6 0 11 5 11 10 0 6 -2 10 -4 10 -3 0
-8 -4 -11 -10z"/>
<path d="M6420 1891 c0 -5 5 -13 10 -16 6 -3 10 -2 10 4 0 5 -4 13 -10 16 -5
3 -10 2 -10 -4z"/>
<path d="M3275 9520 c2 -27 10 -33 12 -10 1 11 -2 22 -6 24 -4 3 -7 -4 -6 -14z"/>
<path d="M7670 9527 c0 -5 7 -6 16 -3 8 3 13 2 10 -2 -3 -4 4 -13 14 -20 14
-9 19 -8 24 4 3 8 11 12 16 9 8 -5 6 -15 -4 -31 -19 -28 -21 -40 -3 -26 10 8
13 6 14 -11 2 -16 0 -18 -6 -8 -7 10 -9 7 -8 -11 2 -19 7 -24 22 -23 28 3 29
4 17 18 -14 17 -14 109 0 101 6 -4 8 -2 5 4 -8 11 -25 11 -43 -1 -6 -3 -14 -3
-18 0 -11 11 -56 11 -56 0z"/>
<path d="M7890 9525 c-9 -11 -9 -15 -1 -15 7 0 9 -5 5 -12 -4 -7 -3 -10 1 -5
8 6 16 47 10 47 -2 0 -8 -7 -15 -15z"/>
<path d="M2095 9520 c-3 -5 -3 -10 1 -10 4 0 -1 -7 -12 -16 -18 -14 -18 -15 4
-4 12 6 20 16 16 22 -4 6 2 8 17 3 19 -5 21 -4 9 4 -19 13 -27 14 -35 1z"/>
<path d="M2185 9520 c-3 -5 -2 -10 4 -10 5 0 13 5 16 10 3 6 2 10 -4 10 -5 0
-13 -4 -16 -10z"/>
<path d="M3175 9521 c-3 -5 -2 -12 3 -15 5 -3 9 1 9 9 0 17 -3 19 -12 6z"/>
<path d="M3236 9521 c-3 -5 2 -15 12 -22 15 -12 16 -12 5 2 -7 9 -10 19 -6 22
3 4 4 7 0 7 -3 0 -8 -4 -11 -9z"/>
<path d="M7835 9520 c3 -5 8 -10 11 -10 2 0 4 5 4 10 0 6 -5 10 -11 10 -5 0
-7 -4 -4 -10z"/>
<path d="M7815 9510 c6 -10 3 -12 -13 -8 -12 4 -20 2 -16 -3 7 -12 31 -12 39
0 3 5 0 13 -6 17 -8 5 -9 3 -4 -6z"/>
<path d="M2150 9500 c0 -5 4 -10 9 -10 5 0 11 -9 14 -21 3 -12 10 -18 16 -15
5 3 12 -1 14 -9 3 -11 4 -10 3 2 -1 10 -7 17 -13 16 -6 -1 -14 9 -17 22 -6 24
-26 35 -26 15z"/>
<path d="M7634 9499 c-2 -4 3 -12 11 -19 17 -14 39 -4 28 13 -5 8 -2 8 9 0 8
-7 17 -11 20 -8 2 3 5 -2 5 -10 0 -11 -4 -12 -13 -4 -7 6 -14 6 -18 1 -13 -22
28 -22 48 -1 12 12 16 19 9 15 -6 -3 -14 -2 -18 4 -4 6 -11 8 -16 5 -5 -4 -9
-1 -9 4 0 11 -49 11 -56 0z"/>
<path d="M7844 9496 c-10 -8 -17 -16 -14 -19 3 -2 14 4 24 14 23 22 18 25 -10
5z"/>
<path d="M6976 9490 c-2 -4 0 -40 3 -57 2 -13 41 31 41 46 0 15 -38 25 -44 11z
m23 -14 c8 -10 8 -16 -2 -24 -10 -9 -13 -6 -13 13 0 29 0 29 15 11z"/>
<path d="M2100 9480 c-18 -12 -2 -12 25 0 13 6 15 9 5 9 -8 0 -22 -4 -30 -9z"/>
<path d="M7861 9480 c-9 -5 -4 -7 13 -7 29 0 32 2 13 10 -8 3 -20 2 -26 -3z"/>
<path d="M2123 9463 c-7 -3 -13 -12 -13 -21 0 -13 3 -12 15 4 14 18 15 18 12
-5 -2 -20 3 -25 22 -25 14 0 26 6 29 14 2 9 0 11 -5 5 -4 -5 -16 -11 -26 -11
-13 -1 -16 3 -12 16 6 20 -3 30 -22 23z"/>
<path d="M6705 9460 c-3 -6 1 -7 9 -4 18 7 21 14 7 14 -6 0 -13 -4 -16 -10z"/>
<path d="M7783 9458 c-4 -7 -1 -8 7 -3 10 6 12 4 7 -8 -3 -9 -2 -19 4 -22 5
-4 9 -3 8 2 -4 22 2 34 14 27 6 -4 8 -3 4 1 -12 13 -36 15 -44 3z"/>
<path d="M7912 9465 c4 -4 3 -14 -3 -22 -7 -8 -8 -13 -1 -13 15 0 23 28 9 36
-7 4 -9 4 -5 -1z"/>
<path d="M2075 9450 c3 -5 8 -10 11 -10 2 0 4 5 4 10 0 6 -5 10 -11 10 -5 0
-7 -4 -4 -10z"/>
<path d="M3174 9449 c-3 -6 -2 -15 3 -20 5 -5 9 -1 9 11 0 23 -2 24 -12 9z"/>
<path d="M6732 9451 c-11 -7 -11 -9 0 -14 9 -3 15 1 15 9 0 8 -1 14 -1 14 -1
0 -7 -4 -14 -9z"/>
<path d="M7640 9449 c-12 -8 -11 -9 5 -5 11 3 27 1 35 -4 11 -7 11 -10 2 -10
-7 0 -10 -5 -6 -12 4 -7 3 -8 -5 -4 -6 4 -9 12 -6 17 8 12 -6 11 -25 -1 -19
-12 -6 -23 28 -25 22 -1 28 3 27 18 -1 10 -8 23 -16 28 -18 11 -21 11 -39 -2z"/>
<path d="M7710 9441 c0 -6 5 -13 10 -16 6 -3 10 1 10 9 0 9 -4 16 -10 16 -5 0
-10 -4 -10 -9z"/>
<path d="M7828 9433 c6 -2 18 -2 25 0 6 3 1 5 -13 5 -14 0 -19 -2 -12 -5z"/>
<path d="M3265 9419 c-3 -4 2 -6 10 -5 21 3 28 13 10 13 -9 0 -18 -4 -20 -8z"/>
<path d="M6700 9426 c0 -2 9 -6 20 -9 11 -3 18 -1 14 4 -5 9 -34 13 -34 5z"/>
<path d="M3545 9330 c0 -32 3 -61 7 -65 4 -4 20 1 37 11 33 20 42 38 14 27
-15 -5 -16 -4 -7 8 7 8 12 26 12 42 0 24 -3 26 -16 15 -13 -11 -14 -11 -7 1 6
11 4 13 -7 8 -9 -3 -19 -2 -24 3 -5 5 -9 -16 -9 -50z m49 -5 c-4 -8 -11 -15
-18 -15 -8 0 -7 -3 1 -8 9 -6 6 -11 -8 -21 -17 -10 -20 -10 -13 1 15 23 15 50
2 42 -10 -6 -10 -5 -1 8 7 8 9 18 5 23 -4 4 3 3 15 -4 14 -7 20 -17 17 -26z"/>
<path d="M1621 9364 c0 -11 3 -14 6 -6 3 7 2 16 -1 19 -3 4 -6 -2 -5 -13z"/>
<path d="M1696 9358 c3 -5 10 -6 15 -3 13 9 11 12 -6 12 -8 0 -12 -4 -9 -9z"/>
<path d="M1655 9350 c-4 -6 1 -7 11 -3 10 4 15 2 11 -4 -3 -5 0 -10 8 -10 11
0 12 4 4 14 -14 15 -26 17 -34 3z"/>
<path d="M3473 9338 c-1 -13 3 -18 13 -14 8 3 14 1 14 -4 0 -6 5 -9 11 -7 6 1
14 -4 16 -10 6 -15 -13 -17 -22 -3 -3 6 -14 10 -23 10 -15 -1 -15 -2 1 -11 11
-6 16 -17 12 -28 -8 -27 25 -22 36 6 9 24 3 53 -12 53 -5 0 -8 5 -6 12 1 7 -7
13 -18 14 -14 1 -21 -5 -22 -18z m37 8 c0 -2 -7 -7 -16 -10 -8 -3 -12 -2 -9 4
6 10 25 14 25 6z"/>
<path d="M1626 9321 c5 -17 3 -21 -6 -16 -8 5 -11 4 -6 -3 9 -15 33 -5 33 13
0 8 -4 12 -8 9 -4 -2 -10 2 -13 8 -3 7 -3 2 0 -11z"/>
<path d="M1735 9330 c-4 -6 -11 -8 -16 -5 -5 4 -9 2 -9 -3 0 -5 8 -12 18 -14
12 -4 18 1 18 13 0 22 -2 23 -11 9z"/>
<path d="M8337 9333 c-10 -9 -9 -23 1 -23 5 0 9 7 9 15 0 17 -1 18 -10 8z"/>
<path d="M6330 9326 c0 -2 7 -7 16 -10 8 -3 12 -2 9 4 -6 10 -25 14 -25 6z"/>
<path d="M8250 9319 c0 -5 5 -7 10 -4 6 3 10 8 10 11 0 2 -4 4 -10 4 -5 0 -10
-5 -10 -11z"/>
<path d="M1674 9289 c-3 -6 1 -18 11 -27 16 -16 17 -16 7 4 -6 12 -8 24 -5 28
3 3 4 6 0 6 -3 0 -9 -5 -13 -11z"/>
<path d="M8314 9292 c4 -7 2 -21 -5 -30 -12 -15 -11 -15 6 0 16 15 17 20 6 30
-11 11 -13 10 -7 0z"/>
<path d="M3475 9280 c-3 -5 -1 -10 4 -10 6 0 11 5 11 10 0 6 -2 10 -4 10 -3 0
-8 -4 -11 -10z"/>
<path d="M8273 9265 c0 -8 4 -12 9 -9 5 3 6 10 3 15 -9 13 -12 11 -12 -6z"/>
<path d="M1627 9255 c3 -8 9 -12 14 -9 12 7 11 11 -5 17 -10 4 -13 1 -9 -8z"/>
<path d="M6276 9253 c-6 -14 -5 -15 5 -6 7 7 10 15 7 18 -3 3 -9 -2 -12 -12z"/>
<path d="M3789 9220 c-8 -28 -3 -73 8 -77 11 -4 10 -8 -3 -18 -15 -11 -15 -12
0 -12 9 0 16 5 16 10 0 5 7 4 15 -3 8 -7 13 -15 11 -19 -3 -4 14 -7 37 -6 l42
0 0 67 c1 65 0 67 -18 51 -15 -14 -17 -14 -12 -2 5 13 -3 15 -45 15 -27 -1
-51 -3 -51 -6z m43 -18 c-4 -11 1 -11 22 3 23 16 26 16 20 1 -7 -18 6 -22 22
-6 7 7 10 2 10 -14 0 -14 -4 -22 -8 -20 -4 3 -8 0 -8 -5 0 -6 4 -11 8 -11 4 0
8 -11 8 -25 0 -17 -3 -22 -10 -15 -13 13 -29 13 -22 1 12 -18 -22 -5 -53 21
-34 30 -37 39 -15 51 8 4 14 13 14 20 0 7 -4 6 -10 -3 -5 -8 -12 -11 -17 -7
-8 9 11 24 31 24 8 0 12 -7 8 -15z"/>
<path d="M3845 9190 c-3 -6 -11 -8 -16 -5 -5 4 -12 -1 -15 -10 -9 -23 35 -68
52 -54 7 6 19 7 26 3 8 -5 7 1 -4 17 -15 24 -15 26 0 38 10 6 11 9 4 6 -7 -4
-19 -2 -27 5 -9 8 -15 8 -20 0z m13 -13 c-1 -2 3 -11 10 -19 10 -12 10 -18 -2
-27 -10 -9 -16 -8 -27 5 -15 18 -22 47 -9 39 5 -3 12 0 15 6 4 5 9 8 12 5 2
-2 3 -6 1 -9z"/>
<path d="M3841 9166 c-8 -10 -8 -16 3 -25 9 -8 16 -8 20 -2 4 5 2 12 -4 16 -6
4 -8 11 -5 16 9 14 -1 11 -14 -5z"/>
<path d="M6088 9212 c4 -11 1 -13 -9 -7 -11 7 -12 6 -3 -6 6 -8 10 -24 8 -37
-3 -15 0 -21 7 -17 6 4 8 13 5 20 -2 7 2 16 9 19 11 4 12 0 5 -20 -7 -17 -7
-32 0 -42 5 -9 10 -12 10 -7 10 101 9 108 -20 83 -8 -7 -7 -4 3 7 18 20 18 20
38 -5 18 -24 20 -24 33 -7 12 16 14 16 20 2 3 -9 2 -14 -3 -10 -5 3 -8 -12 -6
-32 1 -21 -2 -44 -7 -51 -8 -9 -6 -11 10 -9 24 4 42 17 23 17 -7 0 -9 5 -4 13
10 16 12 67 2 67 -4 0 -10 8 -13 18 -5 14 -17 18 -60 18 -44 0 -53 -2 -48 -14z
m79 -7 c0 -8 -4 -12 -9 -9 -5 3 -6 10 -3 15 9 13 12 11 12 -6z"/>
<path d="M1155 9060 c-3 -5 -1 -10 4 -10 6 0 11 5 11 10 0 6 -2 10 -4 10 -3 0
-8 -4 -11 -10z"/>
<path d="M1185 9060 c-3 -6 1 -7 9 -4 18 7 21 14 7 14 -6 0 -13 -4 -16 -10z"/>
<path d="M5827 9059 c7 -7 15 -10 18 -7 3 3 -2 9 -12 12 -14 6 -15 5 -6 -5z"/>
<path d="M8740 9060 c-12 -7 -10 -9 7 -7 12 0 19 5 17 9 -6 10 -6 10 -24 -2z"/>
<path d="M8830 9040 c0 -5 5 -10 11 -10 5 0 7 5 4 10 -3 6 -8 10 -11 10 -2 0
-4 -4 -4 -10z"/>
<path d="M5810 9019 c0 -5 5 -7 10 -4 6 3 10 8 10 11 0 2 -4 4 -10 4 -5 0 -10
-5 -10 -11z"/>
<path d="M1173 9005 c0 -7 8 -10 19 -7 10 2 18 6 18 7 0 1 -8 5 -18 7 -11 3
-19 0 -19 -7z"/>
<path d="M1183 8977 c-4 -6 -1 -7 7 -2 10 6 12 4 7 -8 -3 -9 -1 -19 6 -23 7
-4 9 -4 5 1 -4 4 -3 15 2 25 6 12 5 17 -6 17 -8 0 -18 -5 -21 -10z"/>
<path d="M8770 8980 c0 -5 5 -10 11 -10 5 0 7 5 4 10 -3 6 -8 10 -11 10 -2 0
-4 -4 -4 -10z"/>
<path d="M1265 8959 c-4 -6 -5 -12 -2 -15 2 -3 7 2 10 11 7 17 1 20 -8 4z"/>
<path d="M8810 8940 c0 -5 5 -10 11 -10 5 0 7 5 4 10 -3 6 -8 10 -11 10 -2 0
-4 -4 -4 -10z"/>
<path d="M1041 8913 c-1 -17 16 -25 25 -12 4 7 3 9 -4 5 -5 -3 -13 0 -15 6 -4
9 -6 10 -6 1z"/>
<path d="M5696 8911 c-4 -5 3 -7 14 -4 23 6 26 13 6 13 -8 0 -17 -4 -20 -9z"/>
<path d="M5628 8896 c5 -11 17 -21 26 -22 9 -1 13 2 10 8 -3 5 -8 7 -12 4 -3
-3 -11 2 -19 12 -13 16 -14 16 -5 -2z"/>
<path d="M1075 8890 c-3 -5 -3 -10 2 -10 4 0 1 -5 -7 -11 -10 -7 -11 -9 -2 -7
8 2 13 7 12 12 -1 5 4 13 12 17 9 6 9 9 1 9 -6 0 -15 -4 -18 -10z"/>
<path d="M1020 8880 c8 -5 20 -10 25 -10 6 0 3 5 -5 10 -8 5 -19 10 -25 10 -5
0 -3 -5 5 -10z"/>
<path d="M1106 8882 c-2 -4 4 -8 15 -8 10 0 19 4 19 8 0 4 -6 8 -14 8 -8 0
-17 -4 -20 -8z"/>
<path d="M5713 8865 c0 -8 4 -15 9 -15 4 0 8 4 8 9 0 6 -4 12 -8 15 -5 3 -9
-1 -9 -9z"/>
<path d="M1005 8860 c-3 -5 -1 -18 5 -27 9 -15 10 -14 4 6 -4 17 -3 21 6 16 9
-5 11 -4 6 3 -9 15 -13 15 -21 2z"/>
<path d="M1110 8854 c0 -6 7 -19 16 -30 14 -18 14 -18 3 6 -14 31 -19 36 -19
24z"/>
<path d="M5677 8849 c7 -7 15 -10 18 -7 3 3 -2 9 -12 12 -14 6 -15 5 -6 -5z"/>
<path d="M1057 8833 c3 -7 6 -13 8 -13 2 0 5 6 8 13 3 8 -1 14 -8 14 -7 0 -11
-6 -8 -14z"/>
<path d="M5620 8840 c0 -6 7 -10 15 -10 8 0 15 2 15 4 0 2 -7 6 -15 10 -8 3
-15 1 -15 -4z"/>
<path d="M8960 8840 c-9 -6 -10 -10 -3 -10 6 0 15 5 18 10 8 12 4 12 -15 0z"/>
<path d="M1030 8820 c0 -5 5 -10 10 -10 6 0 10 5 10 10 0 6 -4 10 -10 10 -5 0
-10 -4 -10 -10z"/>
<path d="M5667 8813 c3 -7 6 -13 8 -13 2 0 5 6 8 13 3 8 -1 14 -8 14 -7 0 -11
-6 -8 -14z"/>
<path d="M996 8806 c3 -8 13 -17 22 -21 13 -5 13 -2 -3 15 -21 24 -26 25 -19
6z"/>
<path d="M5715 8810 c-4 -6 -11 -8 -16 -5 -5 4 -9 1 -9 -4 0 -16 16 -13 30 4
7 8 10 15 7 15 -3 0 -9 -5 -12 -10z"/>
<path d="M1055 8799 c-4 -6 -4 -13 -1 -16 3 -4 6 -1 6 6 0 7 5 9 12 5 7 -4 8
-3 4 4 -9 15 -13 15 -21 1z"/>
<path d="M1107 8795 c3 -8 9 -12 14 -9 12 7 11 11 -5 17 -10 4 -13 1 -9 -8z"/>
<path d="M8945 8800 c-3 -6 1 -7 9 -4 18 7 21 14 7 14 -6 0 -13 -4 -16 -10z"/>
<path d="M5480 8760 c-9 -6 -10 -10 -3 -10 6 0 15 5 18 10 8 12 4 12 -15 0z"/>
<path d="M5550 8759 c0 -5 5 -7 10 -4 6 3 10 8 10 11 0 2 -4 4 -10 4 -5 0 -10
-5 -10 -11z"/>
<path d="M5510 8740 c0 -5 8 -7 18 -3 14 5 15 3 5 -8 -7 -7 -13 -17 -13 -23 0
-5 6 -1 14 9 8 11 12 23 10 27 -7 11 -34 10 -34 -2z"/>
<path d="M5564 8739 c-4 -8 -3 -9 4 -5 19 11 14 -5 -5 -21 -16 -13 -16 -13 5
-3 12 6 22 15 22 20 0 15 -18 21 -26 9z"/>
<path d="M4435 8731 c-3 -5 -2 -12 3 -15 5 -3 9 1 9 9 0 17 -3 19 -12 6z"/>
<path d="M5481 8717 c-13 -21 -12 -21 5 -5 10 10 16 20 13 22 -3 3 -11 -5 -18
-17z"/>
<path d="M5497 8703 c-2 -5 -3 -15 -2 -23 0 -8 -6 -21 -15 -28 -13 -11 -11
-11 8 -2 12 6 20 15 17 20 -3 4 1 11 7 13 10 4 10 6 0 6 -7 1 -10 6 -7 11 3 6
4 10 1 10 -3 0 -7 -3 -9 -7z"/>
<path d="M4430 8696 c0 -2 8 -10 18 -17 15 -13 16 -12 3 4 -13 16 -21 21 -21
13z"/>
<path d="M5530 8685 c0 -8 29 -12 39 -5 9 5 4 8 -13 8 -14 0 -26 -2 -26 -3z"/>
<path d="M5593 8665 c0 -8 4 -12 9 -9 5 3 6 10 3 15 -9 13 -12 11 -12 -6z"/>
<path d="M5528 8663 c6 -2 9 -10 6 -15 -4 -7 -2 -8 5 -4 13 9 5 26 -12 25 -9
0 -8 -2 1 -6z"/>
<path d="M4510 8656 c0 -2 8 -10 18 -17 15 -13 16 -12 3 4 -13 16 -21 21 -21
13z"/>
<path d="M5555 8640 c-3 -6 1 -7 9 -4 18 7 21 14 7 14 -6 0 -13 -4 -16 -10z"/>
<path d="M5353 8587 c0 -8 6 -14 13 -14 7 0 10 6 7 14 -3 7 -8 13 -12 13 -4 0
-8 -6 -8 -13z"/>
<path d="M4595 8579 c-3 -4 2 -6 10 -5 21 3 28 13 10 13 -9 0 -18 -4 -20 -8z"/>
<path d="M5318 8573 c7 -3 16 -2 19 1 4 3 -2 6 -13 5 -11 0 -14 -3 -6 -6z"/>
<path d="M4653 8545 c0 -8 4 -12 9 -9 5 3 6 10 3 15 -9 13 -12 11 -12 -6z"/>
<path d="M4574 8542 c4 -3 14 -7 22 -8 9 -1 13 0 10 4 -4 3 -14 7 -22 8 -9 1
-13 0 -10 -4z"/>
<path d="M5399 8545 c-10 -39 2 -75 25 -75 6 0 4 5 -4 10 -17 11 -21 51 -5 62
6 5 6 8 -2 8 -7 0 -14 -2 -14 -5z"/>
<path d="M5331 8514 c0 -11 3 -14 6 -6 3 7 2 16 -1 19 -3 4 -6 -2 -5 -13z"/>
<path d="M5350 8516 c0 -2 8 -10 18 -17 15 -13 16 -12 3 4 -13 16 -21 21 -21
13z"/>
<path d="M4654 8496 c1 -8 5 -18 8 -22 4 -3 5 1 4 10 -1 8 -5 18 -8 22 -4 3
-5 -1 -4 -10z"/>
<path d="M5275 8440 c3 -5 8 -10 11 -10 2 0 4 5 4 10 0 6 -5 10 -11 10 -5 0
-7 -4 -4 -10z"/>
<path d="M9175 8389 c1 -60 23 -91 46 -63 8 10 9 15 3 11 -18 -11 -41 25 -39
61 1 18 -1 34 -4 37 -4 2 -6 -19 -6 -46z m26 -56 c13 -16 12 -17 -3 -4 -10 7
-18 15 -18 17 0 8 8 3 21 -13z"/>
<path d="M5230 8359 c0 -5 5 -7 10 -4 6 3 10 8 10 11 0 2 -4 4 -10 4 -5 0 -10
-5 -10 -11z"/>
<path d="M4895 8141 c-6 -11 13 -26 22 -17 4 3 1 6 -6 6 -7 0 -9 5 -6 10 3 6
4 10 1 10 -3 0 -7 -4 -11 -9z"/>
<path d="M4975 8140 c-3 -5 -1 -10 4 -10 6 0 11 5 11 10 0 6 -2 10 -4 10 -3 0
-8 -4 -11 -10z"/>
<path d="M5003 8135 c-3 -9 -3 -18 -1 -21 3 -3 8 4 11 16 6 23 -1 27 -10 5z"/>
<path d="M9430 8145 c0 -7 30 -13 34 -7 3 4 -4 9 -15 9 -10 1 -19 0 -19 -2z"/>
<path d="M4873 8112 c0 -12 5 -22 9 -22 11 0 10 12 -2 30 -7 12 -9 10 -7 -8z"/>
<path d="M4950 8122 c0 -6 9 -12 20 -15 11 -3 20 -3 20 -1 0 2 -9 8 -20 14
-11 6 -20 7 -20 2z"/>
<path d="M4877 8073 c-10 -9 -9 -23 1 -23 5 0 9 7 9 15 0 17 -1 18 -10 8z"/>
<path d="M4975 8060 c6 -10 4 -12 -11 -6 -15 6 -17 5 -6 -5 9 -9 15 -10 23 -2
8 8 7 13 -2 18 -8 6 -10 4 -4 -5z"/>
<path d="M4897 8035 c-4 -8 -1 -17 5 -21 7 -5 8 -2 3 6 -6 10 -4 12 10 6 15
-5 16 -4 5 9 -15 19 -16 19 -23 0z"/>
<path d="M4948 8023 c7 -3 16 -2 19 1 4 3 -2 6 -13 5 -11 0 -14 -3 -6 -6z"/>
<path d="M5075 8020 c-3 -5 -1 -10 4 -10 6 0 11 5 11 10 0 6 -2 10 -4 10 -3 0
-8 -4 -11 -10z"/>
<path d="M400 7814 c-11 -12 -10 -18 5 -32 18 -16 18 -16 6 1 -11 14 -11 20
-1 32 7 8 10 15 7 15 -2 0 -10 -7 -17 -16z"/>
<path d="M433 7807 c-1 -11 -1 -18 0 -16 2 2 8 11 15 20 9 12 9 16 -1 16 -7 0
-14 -9 -14 -20z"/>
<path d="M476 7822 c-3 -5 1 -9 9 -9 8 0 12 4 9 9 -3 4 -7 8 -9 8 -2 0 -6 -4
-9 -8z"/>
<path d="M457 7770 c7 -8 20 -15 29 -16 9 -1 13 1 9 4 -4 4 -10 7 -13 7 -4 0
-14 4 -22 9 -12 7 -13 6 -3 -4z"/>
<path d="M399 7738 c-5 -18 -6 -38 -1 -34 7 8 12 36 6 36 -2 0 -4 -1 -5 -2z"/>
<path d="M9555 7731 c-3 -5 -2 -12 3 -15 5 -3 9 1 9 9 0 17 -3 19 -12 6z"/>
<path d="M500 7679 c0 -5 5 -7 10 -4 6 3 10 8 10 11 0 2 -4 4 -10 4 -5 0 -10
-5 -10 -11z"/>
<path d="M9535 7539 c-4 -6 -5 -12 -2 -15 2 -3 7 2 10 11 7 17 1 20 -8 4z"/>
<path d="M9560 7535 c-7 -9 -11 -17 -9 -20 3 -2 10 5 17 15 14 24 10 26 -8 5z"/>
<path d="M9595 7540 c-3 -5 -3 -10 1 -10 4 0 -1 -7 -12 -16 -18 -15 -18 -15 0
-6 11 5 21 17 22 26 3 18 -2 21 -11 6z"/>
<path d="M9525 7490 c-16 -7 -17 -9 -3 -9 9 -1 20 4 23 9 7 11 7 11 -20 0z"/>
<path d="M9595 7450 c-3 -5 -3 -10 2 -10 4 0 1 -5 -7 -11 -12 -8 -12 -10 -1
-7 8 2 15 12 17 21 3 19 -2 22 -11 7z"/>
<path d="M9531 7447 c2 -1 13 -9 24 -17 19 -14 19 -14 6 3 -7 9 -18 17 -24 17
-6 0 -8 -1 -6 -3z"/>
<path d="M9507 7414 c2 -7 11 -15 18 -18 10 -3 12 0 8 11 -5 12 -3 14 8 8 8
-4 11 -4 6 0 -12 14 -46 13 -40 -1z"/>
<path d="M9556 7388 c-9 -12 -16 -25 -16 -29 0 -8 42 -53 60 -64 9 -6 7 -2 -3
8 -11 9 -16 17 -12 17 4 0 -3 9 -16 19 -13 11 -21 22 -17 26 4 4 14 0 23 -9
18 -18 31 -20 39 -7 9 15 -3 38 -21 38 -13 0 -13 -2 2 -14 10 -7 16 -16 12
-20 -4 -3 -16 2 -27 12 -15 14 -17 21 -9 32 6 7 9 13 6 13 -3 0 -13 -10 -21
-22z"/>
<path d="M9580 7283 c0 -7 5 -13 11 -13 5 0 7 -4 4 -10 -3 -5 -1 -10 4 -10 6
0 11 -5 11 -11 0 -5 -4 -7 -10 -4 -5 3 -10 1 -10 -5 0 -14 22 -8 27 7 2 5 -5
21 -16 34 -11 13 -20 18 -21 12z"/>
<path d="M387 6693 c-13 -12 -7 -18 18 -19 21 -2 24 1 14 12 -13 15 -22 18
-32 7z"/>
<path d="M440 6640 c0 -5 5 -10 10 -10 6 0 10 5 10 10 0 6 -4 10 -10 10 -5 0
-10 -4 -10 -10z"/>
<path d="M9520 6580 c-9 -6 -10 -10 -3 -10 6 0 15 5 18 10 8 12 4 12 -15 0z"/>
<path d="M9550 6586 c0 -2 7 -7 16 -10 8 -3 12 -2 9 4 -6 10 -25 14 -25 6z"/>
<path d="M380 6553 c0 -7 5 -15 11 -19 8 -4 7 -9 -2 -15 -11 -7 -10 -9 4 -9 9
0 17 3 17 8 -1 12 -30 47 -30 35z"/>
<path d="M9515 6551 c-3 -5 -2 -12 3 -15 5 -3 9 1 9 9 0 17 -3 19 -12 6z"/>
<path d="M9540 6536 c0 -2 7 -7 16 -10 8 -3 12 -2 9 4 -6 10 -25 14 -25 6z"/>
<path d="M9599 6518 c-5 -18 -6 -38 -1 -34 7 8 12 36 6 36 -2 0 -4 -1 -5 -2z"/>
<path d="M9495 6471 c-3 -5 -2 -12 3 -15 5 -3 9 1 9 9 0 17 -3 19 -12 6z"/>
<path d="M408 6458 c8 -10 10 -23 6 -30 -6 -9 -3 -9 9 1 10 8 16 14 15 15 -2
1 -12 8 -23 16 -18 14 -19 14 -7 -2z"/>
<path d="M467 6419 c7 -9 10 -19 6 -22 -3 -4 -1 -7 5 -7 17 0 15 16 -5 31 -16
12 -17 12 -6 -2z"/>
<path d="M385 6379 c-3 -4 2 -6 10 -5 21 3 28 13 10 13 -9 0 -18 -4 -20 -8z"/>
<path d="M450 6376 c0 -2 8 -10 18 -17 15 -13 16 -12 3 4 -13 16 -21 21 -21
13z"/>
<path d="M419 6353 c-13 -16 -12 -17 4 -4 9 7 17 15 17 17 0 8 -8 3 -21 -13z"/>
<path d="M480 6340 c-9 -6 -10 -10 -3 -10 6 0 15 5 18 10 8 12 4 12 -15 0z"/>
<path d="M416 6318 c3 -5 10 -6 15 -3 13 9 11 12 -6 12 -8 0 -12 -4 -9 -9z"/>
<path d="M9395 5941 c6 -11 4 -13 -10 -7 -15 5 -16 4 -5 -9 7 -8 16 -15 20
-15 10 0 7 27 -5 37 -4 5 -5 2 0 -6z"/>
<path d="M9437 5897 c4 -6 0 -8 -9 -5 -8 4 -15 0 -15 -7 0 -10 5 -11 18 -4 24
12 31 26 14 26 -8 0 -11 -5 -8 -10z"/>
<path d="M9333 5885 c0 -8 5 -11 10 -8 6 4 8 0 5 -8 -4 -10 1 -15 12 -15 11 0
16 5 12 15 -3 8 -1 12 5 8 5 -3 10 0 10 8 0 11 -4 12 -14 4 -9 -8 -17 -8 -26
0 -10 8 -14 7 -14 -4z"/>
<path d="M702 5504 c9 -9 21 -15 27 -13 6 2 -2 10 -17 17 -25 11 -25 11 -10
-4z"/>
<path d="M756 5494 c-3 -9 -2 -22 2 -31 6 -10 9 -5 9 16 0 35 -2 38 -11 15z"/>
<path d="M693 5469 c-2 -23 3 -25 10 -4 4 8 3 16 -1 19 -4 3 -9 -4 -9 -15z"/>
<path d="M810 5470 c6 -11 13 -20 16 -20 2 0 0 9 -6 20 -6 11 -13 20 -16 20
-2 0 0 -9 6 -20z"/>
<path d="M9266 5482 c-3 -5 1 -9 9 -9 8 0 12 4 9 9 -3 4 -7 8 -9 8 -2 0 -6 -4
-9 -8z"/>
<path d="M715 5460 c-3 -6 1 -7 9 -4 18 7 21 14 7 14 -6 0 -13 -4 -16 -10z"/>
<path d="M784 5448 c3 -15 26 -23 26 -8 0 6 -4 9 -9 6 -5 -4 -12 -1 -14 4 -3
6 -4 5 -3 -2z"/>
<path d="M730 5446 c0 -2 7 -7 16 -10 8 -3 12 -2 9 4 -6 10 -25 14 -25 6z"/>
<path d="M693 5411 c0 -11 5 -18 9 -15 4 3 5 11 1 19 -7 21 -12 19 -10 -4z"/>
<path d="M744 5416 c11 -9 23 -16 27 -16 14 0 19 19 8 26 -8 4 -9 3 -5 -4 9
-15 1 -15 -27 -1 -21 10 -21 10 -3 -5z"/>
<path d="M930 5197 c-36 -17 -77 -47 -63 -47 7 0 15 5 18 10 5 8 11 7 21 -1
12 -10 17 -9 27 1 9 10 9 11 0 6 -7 -4 -18 -4 -24 0 -6 4 5 14 27 24 22 10 35
18 29 18 -5 0 -21 -5 -35 -11z"/>
<path d="M845 5180 c3 -5 11 -10 16 -10 6 0 7 5 4 10 -3 6 -11 10 -16 10 -6 0
-7 -4 -4 -10z"/>
<path d="M950 5170 c0 -5 5 -10 11 -10 5 0 7 5 4 10 -3 6 -8 10 -11 10 -2 0
-4 -4 -4 -10z"/>
<path d="M9046 5162 c-3 -5 1 -9 9 -9 8 0 12 4 9 9 -3 4 -7 8 -9 8 -2 0 -6 -4
-9 -8z"/>
<path d="M840 5143 c0 -7 5 -15 10 -18 6 -3 10 -11 10 -16 0 -6 -5 -7 -12 -3
-7 5 -8 3 -3 -5 5 -9 11 -9 17 -3 7 7 5 18 -6 33 -9 13 -16 18 -16 12z"/>
<path d="M880 5138 c-12 -8 -11 -9 3 -4 15 5 17 2 12 -13 -3 -11 -2 -22 3 -25
5 -3 10 6 10 19 0 30 -9 37 -28 23z"/>
<path d="M931 5132 c-17 -31 -13 -40 5 -14 9 13 14 26 11 29 -3 2 -10 -4 -16
-15z"/>
<path d="M9115 5141 c-3 -5 -2 -12 3 -15 5 -3 9 1 9 9 0 17 -3 19 -12 6z"/>
<path d="M950 5111 c0 -5 7 -12 16 -15 14 -5 15 -4 4 9 -14 17 -20 19 -20 6z"/>
<path d="M866 5082 c-3 -5 1 -9 9 -9 8 0 15 4 15 9 0 4 -4 8 -9 8 -6 0 -12 -4
-15 -8z"/>
<path d="M935 5080 c3 -5 8 -10 11 -10 2 0 4 5 4 10 0 6 -5 10 -11 10 -5 0 -7
-4 -4 -10z"/>
<path d="M9026 5078 c3 -5 10 -6 15 -3 13 9 11 12 -6 12 -8 0 -12 -4 -9 -9z"/>
<path d="M1053 4885 c0 -8 4 -15 9 -15 4 0 8 4 8 9 0 6 -4 12 -8 15 -5 3 -9
-1 -9 -9z"/>
<path d="M1090 4881 c0 -6 4 -12 8 -15 5 -3 9 1 9 9 0 8 -4 15 -9 15 -4 0 -8
-4 -8 -9z"/>
<path d="M995 4841 c-3 -5 -2 -12 3 -15 5 -3 9 1 9 9 0 17 -3 19 -12 6z"/>
<path d="M1035 4842 c3 -3 -1 -12 -7 -21 -8 -10 -4 -9 10 3 26 23 26 23 7 23
-8 0 -13 -3 -10 -5z"/>
<path d="M1070 4840 c0 -5 5 -10 11 -10 5 0 7 5 4 10 -3 6 -8 10 -11 10 -2 0
-4 -4 -4 -10z"/>
<path d="M1115 4800 c-3 -5 -1 -10 4 -10 6 0 11 5 11 10 0 6 -2 10 -4 10 -3 0
-8 -4 -11 -10z"/>
<path d="M1075 4791 c-3 -5 -2 -12 3 -15 5 -3 9 1 9 9 0 17 -3 19 -12 6z"/>
<path d="M8728 4725 c-22 -29 -22 -35 -4 -35 21 0 39 27 29 43 -6 12 -11 11
-25 -8z m22 1 c0 -2 -8 -10 -17 -17 -16 -13 -17 -12 -4 4 13 16 21 21 21 13z"/>
<path d="M8765 4732 c5 -13 -30 -67 -43 -67 -4 0 -8 -8 -9 -17 -2 -11 3 -18
12 -18 8 0 15 3 14 8 -3 19 15 53 26 48 7 -2 18 1 24 7 8 8 14 8 24 -2 10 -11
9 -14 -1 -18 -6 -3 -9 -10 -5 -16 14 -22 13 -39 -1 -28 -7 6 -16 8 -20 4 -11
-12 -37 -12 -30 -1 4 7 2 8 -4 4 -25 -15 -10 -23 46 -23 31 0 51 2 45 5 -7 2
-13 8 -13 13 0 6 5 7 10 4 17 -11 11 7 -7 21 -17 13 -17 14 2 8 11 -3 16 -2
10 3 -5 4 -15 17 -22 29 -9 16 -8 21 3 21 7 0 11 -4 8 -9 -3 -4 0 -8 5 -8 6 0
11 6 11 13 0 9 -12 14 -30 15 -17 0 -28 -3 -25 -8 3 -4 -2 -11 -10 -14 -13 -4
-13 -2 -5 14 13 25 13 27 -5 27 -10 0 -14 -6 -10 -15z"/>
<path d="M8785 4680 c-4 -6 -12 -7 -18 -4 -7 4 -9 4 -5 -1 4 -4 0 -14 -10 -22
-16 -12 -16 -13 1 -7 10 4 17 1 17 -6 0 -9 3 -10 13 -1 8 6 18 7 23 3 4 -4 2
1 -6 11 -12 16 -12 20 1 28 9 5 10 9 2 9 -6 0 -15 -5 -18 -10z"/>
<path d="M1319 4448 c-6 -21 -5 -38 1 -38 5 0 8 9 7 20 -1 17 -5 26 -8 18z"/>
<path d="M1428 4418 c-7 -18 1 -38 15 -38 8 0 8 3 0 11 -6 6 -9 18 -6 25 3 8
3 14 0 14 -3 0 -7 -6 -9 -12z"/>
<path d="M8636 4413 c-6 -14 -5 -15 5 -6 7 7 10 15 7 18 -3 3 -9 -2 -12 -12z"/>
<path d="M1312 4395 c4 -4 3 -14 -2 -20 -7 -9 -5 -17 7 -26 11 -9 14 -10 9 -1
-4 6 -3 12 2 12 6 0 13 -7 16 -16 4 -9 9 -14 13 -10 3 3 12 -3 20 -14 8 -11
18 -20 24 -20 5 0 0 9 -11 20 -11 11 -22 20 -25 20 -10 0 -42 35 -38 42 2 4
-2 10 -9 14 -7 4 -10 4 -6 -1z"/>
<path d="M8590 4396 c0 -2 8 -10 18 -17 15 -13 16 -12 3 4 -13 16 -21 21 -21
13z"/>
<path d="M1405 4380 c-3 -5 -1 -10 4 -10 6 0 11 5 11 10 0 6 -2 10 -4 10 -3 0
-8 -4 -11 -10z"/>
<path d="M1372 4368 c2 -6 10 -13 16 -14 7 -1 8 0 2 3 -5 2 -8 9 -4 14 3 5 0
9 -6 9 -7 0 -10 -5 -8 -12z"/>
<path d="M1435 4360 c6 -10 4 -12 -11 -6 -15 6 -17 5 -6 -5 9 -9 15 -10 23 -2
8 8 7 13 -2 18 -8 6 -10 4 -4 -5z"/>
<path d="M8600 4335 c-7 -9 -11 -17 -9 -20 3 -2 10 5 17 15 14 24 10 26 -8 5z"/>
<path d="M8660 4345 c0 -2 6 -8 13 -14 10 -8 14 -7 14 2 0 8 -6 14 -14 14 -7
0 -13 -1 -13 -2z"/>
<path d="M1395 4330 c3 -5 8 -10 11 -10 2 0 4 5 4 10 0 6 -5 10 -11 10 -5 0
-7 -4 -4 -10z"/>
<path d="M1315 4321 c-3 -5 0 -13 6 -17 8 -4 9 -3 5 4 -4 7 -3 12 3 12 5 0 13
-4 16 -10 3 -5 11 -10 18 -10 6 0 2 7 -9 15 -23 17 -31 18 -39 6z"/>
<path d="M8418 4257 c-10 -21 -13 -39 -8 -47 5 -8 7 -17 4 -21 -2 -4 5 -7 16
-6 11 1 20 7 20 15 0 7 -4 11 -9 8 -13 -9 -21 19 -9 35 8 11 9 11 5 -3 -3 -9
0 -19 7 -21 12 -5 14 16 7 66 -2 17 -18 5 -33 -26z"/>
<path d="M8465 4253 c-3 -10 -1 -19 5 -21 8 -3 7 -8 -1 -18 -14 -17 2 -41 20
-30 18 11 13 26 -6 20 -15 -5 -15 -4 -4 4 12 9 12 13 2 26 -9 11 -10 16 -2 16
6 0 11 5 11 10 0 16 -17 11 -25 -7z"/>
<path d="M8495 4252 c-3 -7 0 -22 6 -33 14 -26 -6 -52 -33 -43 -17 5 -18 3 -9
-15 7 -12 14 -21 17 -21 3 0 3 4 0 9 -3 5 10 8 30 6 33 -3 35 -2 30 20 -3 13
-2 26 4 30 16 10 -1 34 -22 30 -11 -3 -17 -1 -14 3 4 4 13 7 19 7 5 0 12 5 14
10 5 16 -36 13 -42 -3z m35 -42 c0 -5 -2 -10 -4 -10 -3 0 -8 5 -11 10 -3 6 -1
10 4 10 6 0 11 -4 11 -10z m-6 -29 c3 -5 -1 -11 -9 -14 -9 -4 -12 -1 -8 9 6
16 10 17 17 5z"/>
<path d="M8430 4166 c0 -9 5 -16 10 -16 6 0 10 4 10 9 0 6 -4 13 -10 16 -5 3
-10 -1 -10 -9z"/>
<path d="M8405 4160 c-3 -5 -1 -10 4 -10 6 0 11 5 11 10 0 6 -2 10 -4 10 -3 0
-8 -4 -11 -10z"/>
<path d="M1709 3963 c-13 -16 -12 -17 4 -4 9 7 17 15 17 17 0 8 -8 3 -21 -13z"/>
<path d="M1615 3931 c-3 -5 -2 -12 3 -15 5 -3 9 1 9 9 0 17 -3 19 -12 6z"/>
<path d="M1735 3931 c-3 -5 -2 -12 3 -15 5 -3 9 1 9 9 0 17 -3 19 -12 6z"/>
<path d="M1675 3919 c-3 -4 2 -6 10 -5 21 3 28 13 10 13 -9 0 -18 -4 -20 -8z"/>
<path d="M8270 3921 c0 -6 4 -13 10 -16 6 -3 7 1 4 9 -7 18 -14 21 -14 7z"/>
<path d="M1736 3887 c3 -10 9 -15 12 -12 3 3 0 11 -7 18 -10 9 -11 8 -5 -6z"/>
<path d="M1630 3860 c0 -5 5 -10 11 -10 5 0 7 5 4 10 -3 6 -8 10 -11 10 -2 0
-4 -4 -4 -10z"/>
<path d="M1790 3818 c0 -5 -4 -7 -8 -4 -5 3 -9 -1 -9 -9 0 -8 4 -12 9 -9 12 8
10 -10 -4 -24 -7 -7 -8 -12 -4 -12 5 0 3 -6 -3 -14 -8 -9 -8 -16 -2 -20 6 -4
7 -14 4 -24 -3 -9 -3 -14 2 -10 4 4 14 3 21 -3 8 -7 14 -7 19 1 4 6 1 9 -6 8
-7 -2 -14 6 -16 17 -3 16 -2 17 6 5 9 -13 11 -13 12 3 1 9 3 22 4 27 1 6 3 13
4 18 1 4 5 0 11 -8 5 -9 5 -19 -1 -26 -12 -14 -2 -41 17 -48 7 -3 13 -2 13 2
-3 20 2 25 12 12 8 -11 12 -12 16 -2 2 6 9 10 13 7 5 -3 7 4 5 15 -6 29 -15
41 -26 35 -5 -4 -9 -1 -9 6 0 6 8 9 18 7 11 -3 19 0 19 8 0 8 -4 14 -8 14 -4
0 -6 8 -4 18 2 13 -3 18 -21 18 -13 0 -24 -5 -24 -10 0 -6 -5 -4 -11 4 -9 13
-10 12 -5 -2 3 -10 1 -20 -4 -23 -9 -5 -14 6 -12 26 1 3 -6 6 -14 6 -7 0 -14
-4 -14 -9z m96 -23 c1 -8 -7 -17 -17 -20 -16 -5 -18 -10 -8 -21 6 -7 15 -12
19 -9 4 3 10 -2 14 -10 3 -8 0 -18 -6 -21 -7 -4 -13 -3 -15 3 -2 6 -13 21 -24
34 -10 12 -19 25 -19 29 0 12 26 30 33 23 4 -3 7 0 7 7 0 17 13 4 16 -15z
m-72 -1 c8 -20 -2 -36 -17 -27 -7 4 -6 0 2 -10 7 -9 11 -17 8 -17 -3 0 -14 -3
-24 -7 -15 -6 -16 -4 -6 9 7 8 10 18 6 21 -3 4 2 9 11 13 13 5 14 9 5 20 -7 9
-8 14 -1 14 5 0 13 -7 16 -16z m41 -84 c-5 -8 -11 -8 -17 -2 -6 6 -7 16 -3 22
5 8 11 8 17 2 6 -6 7 -16 3 -22z"/>
<path d="M1845 3780 c-3 -6 1 -7 9 -4 18 7 21 14 7 14 -6 0 -13 -4 -16 -10z"/>
<path d="M8152 3792 c23 -15 25 -21 15 -32 -10 -12 -9 -12 6 0 18 13 18 15 -5
32 -13 9 -27 18 -33 18 -5 0 2 -8 17 -18z"/>
<path d="M8095 3780 c3 -5 8 -10 11 -10 2 0 4 5 4 10 0 6 -5 10 -11 10 -5 0
-7 -4 -4 -10z"/>
<path d="M8130 3783 c5 -2 8 -8 6 -12 -3 -4 0 -13 5 -21 7 -11 8 -9 6 9 -2 14
-9 26 -16 27 -6 1 -7 0 -1 -3z"/>
<path d="M8115 3740 c-3 -5 -1 -10 4 -10 6 0 11 5 11 10 0 6 -2 10 -4 10 -3 0
-8 -4 -11 -10z"/>
<path d="M8170 3730 c-6 -11 -8 -20 -6 -20 3 0 10 9 16 20 6 11 8 20 6 20 -3
0 -10 -9 -16 -20z"/>
<path d="M8195 3730 c-3 -6 1 -7 9 -4 18 7 21 14 7 14 -6 0 -13 -4 -16 -10z"/>
<path d="M8141 3714 c0 -11 3 -14 6 -6 3 7 2 16 -1 19 -3 4 -6 -2 -5 -13z"/>
<path d="M8115 3699 c-4 -6 -5 -12 -2 -15 2 -3 7 2 10 11 7 17 1 20 -8 4z"/>
<path d="M8175 3700 c-3 -5 -1 -10 4 -10 6 0 11 5 11 10 0 6 -2 10 -4 10 -3 0
-8 -4 -11 -10z"/>
<path d="M7965 3660 c3 -4 -1 -10 -8 -13 -15 -6 -17 -112 -2 -111 19 1 63 23
71 35 4 7 3 10 -4 5 -6 -3 -20 7 -31 23 -17 23 -18 31 -7 40 7 6 17 8 22 4 5
-4 3 -1 -3 7 -14 15 -47 24 -38 10z m15 -15 c-7 -8 -17 -15 -23 -15 -6 0 -2 7
9 15 25 19 30 19 14 0z m10 -57 c13 -18 19 -30 15 -25 -5 4 -17 0 -27 -10 -10
-9 -21 -13 -25 -10 -3 4 0 7 8 7 11 0 11 2 -1 10 -12 8 -12 10 -1 10 11 0 11
3 1 15 -6 8 -9 19 -5 25 9 14 8 14 35 -22z"/>
<path d="M7960 3602 c0 -6 5 -14 10 -17 6 -4 7 -11 4 -17 -4 -7 -2 -8 5 -4 9
6 9 12 -1 24 -7 10 -14 19 -15 21 -2 2 -3 -1 -3 -7z"/>
<path d="M1996 3553 c-12 -12 -6 -19 19 -21 14 -1 25 0 25 3 0 9 -37 24 -44
18z"/>
<path d="M2433 3045 c0 -8 4 -12 9 -9 5 3 6 10 3 15 -9 13 -12 11 -12 -6z"/>
<path d="M2495 3040 c-3 -5 -1 -10 4 -10 6 0 11 5 11 10 0 6 -2 10 -4 10 -3 0
-8 -4 -11 -10z"/>
<path d="M2473 3007 c0 -8 6 -14 14 -14 9 0 10 4 2 14 -6 7 -12 13 -14 13 -1
0 -2 -6 -2 -13z"/>
<path d="M2410 3001 c0 -6 4 -12 8 -15 5 -3 9 1 9 9 0 8 -4 15 -9 15 -4 0 -8
-4 -8 -9z"/>
<path d="M2394 2962 c4 -3 14 -7 22 -8 9 -1 13 0 10 4 -4 3 -14 7 -22 8 -9 1
-13 0 -10 -4z"/>
<path d="M2542 2880 c0 -14 2 -19 5 -12 2 6 2 18 0 25 -3 6 -5 1 -5 -13z"/>
<path d="M2566 2883 c-6 -14 -5 -15 5 -6 7 7 10 15 7 18 -3 3 -9 -2 -12 -12z"/>
<path d="M2630 2891 c0 -5 5 -13 10 -16 6 -3 10 -2 10 4 0 5 -4 13 -10 16 -5
3 -10 2 -10 -4z"/>
<path d="M2604 2879 c-3 -6 -2 -15 4 -21 6 -6 12 -6 17 3 6 8 4 10 -5 4 -10
-6 -12 -4 -7 8 7 19 2 23 -9 6z"/>
<path d="M2575 2861 c-3 -6 5 -15 17 -21 21 -10 21 -10 6 3 -10 8 -15 17 -11
20 3 4 4 7 0 7 -3 0 -8 -4 -12 -9z"/>
<path d="M2654 2859 c-4 -7 -3 -9 4 -5 5 3 13 0 15 -6 4 -9 6 -10 6 -1 1 17
-16 25 -25 12z"/>
<path d="M2545 2839 c-4 -6 -4 -13 -1 -16 3 -4 6 -1 6 6 0 7 5 9 12 5 7 -4 8
-3 4 4 -9 15 -13 15 -21 1z"/>
<path d="M2642 2837 c10 -8 14 -18 10 -22 -4 -5 -1 -5 6 -1 17 10 15 14 -10
26 -21 10 -21 10 -6 -3z"/>
<path d="M2579 2828 c0 -2 -2 -13 -5 -26 -3 -19 -2 -21 10 -10 8 7 10 15 5 16
-5 2 -7 8 -3 13 3 5 3 9 0 9 -3 0 -6 -1 -7 -2z"/>
<path d="M2615 2819 c-5 -8 -4 -10 3 -5 7 4 12 3 12 -3 0 -5 -6 -12 -12 -14
-10 -4 -10 -6 -1 -6 17 -1 27 19 15 31 -6 6 -12 6 -17 -3z"/>
<path d="M7340 2806 c0 -2 8 -10 18 -17 15 -13 16 -12 3 4 -13 16 -21 21 -21
13z"/>
<path d="M2590 2781 c0 -6 4 -13 10 -16 6 -3 7 1 4 9 -7 18 -14 21 -14 7z"/>
<path d="M2630 2780 c-13 -8 -12 -10 3 -10 9 0 17 5 17 10 0 12 -1 12 -20 0z"/>
<path d="M2766 2738 c5 -8 -10 -12 -35 -9 -7 2 -10 -3 -6 -9 4 -6 13 -9 20 -6
7 2 17 0 23 -6 6 -6 15 -7 20 -4 17 10 10 42 -9 42 -10 0 -15 -4 -13 -8z m24
-18 c0 -5 -4 -10 -10 -10 -5 0 -10 5 -10 10 0 6 5 10 10 10 6 0 10 -4 10 -10z"/>
<path d="M2813 2738 c9 -24 -21 -60 -41 -50 -9 5 -29 8 -45 7 -21 -1 -26 3
-22 16 3 10 2 20 -2 22 -5 3 -8 -12 -8 -33 0 -21 3 -36 7 -34 13 8 9 -11 -4
-26 -11 -13 -11 -13 2 -2 7 6 19 12 25 12 5 -1 -1 -10 -14 -20 -13 -11 -18
-20 -13 -20 6 0 14 5 17 10 4 6 11 8 16 4 5 -3 6 -11 2 -17 -5 -9 -3 -9 8 -1
8 6 31 10 52 9 36 -2 50 8 25 18 -10 4 -9 8 2 16 10 7 11 11 3 11 -7 0 -17 -9
-23 -20 -6 -11 -15 -20 -21 -20 -6 0 -1 14 11 30 12 17 18 30 13 30 -4 0 -1 6
7 13 19 16 24 43 9 53 -8 5 -10 2 -6 -8z m-26 -60 c7 -1 10 -5 7 -10 -4 -5
-13 -7 -21 -3 -13 4 -14 3 -4 -9 10 -12 8 -17 -8 -26 -19 -10 -25 -7 -23 12 1
3 -5 12 -13 18 -24 20 -17 29 18 24 17 -3 37 -6 44 -6z"/>
<path d="M2749 2678 c-5 -9 -5 -48 -1 -43 6 6 11 45 5 45 -2 0 -4 -1 -4 -2z"/>
<path d="M7175 2741 c-3 -5 0 -13 6 -17 7 -4 9 -3 5 4 -3 5 0 13 6 15 9 4 10
6 1 6 -6 1 -14 -3 -18 -8z"/>
<path d="M7210 2726 c0 -2 7 -7 16 -10 8 -3 12 -2 9 4 -6 10 -25 14 -25 6z"/>
<path d="M7175 2700 c-7 -11 22 -26 32 -16 4 3 -1 6 -11 6 -9 0 -14 5 -11 10
3 6 4 10 1 10 -3 0 -8 -5 -11 -10z"/>
<path d="M7242 2680 c-7 -11 -8 -20 -3 -20 9 0 24 30 18 36 -1 2 -8 -6 -15
-16z"/>
<path d="M7278 2683 c7 -3 16 -2 19 1 4 3 -2 6 -13 5 -11 0 -14 -3 -6 -6z"/>
<path d="M7175 2640 c3 -5 8 -10 11 -10 2 0 4 5 4 10 0 6 -5 10 -11 10 -5 0
-7 -4 -4 -10z"/>
<path d="M7206 2638 c3 -4 9 -8 15 -8 5 0 9 4 9 8 0 5 -7 9 -15 9 -8 0 -12 -4
-9 -9z"/>
<path d="M7245 2640 c-2 -3 12 -6 31 -6 19 0 34 3 34 7 0 8 -60 7 -65 -1z"/>
<path d="M2951 2591 c-8 -5 -21 -7 -30 -4 -11 3 -11 1 2 -7 18 -11 18 -13 1
-31 -9 -10 -14 -19 -9 -19 4 0 2 -6 -4 -13 -8 -10 -7 -14 4 -14 7 0 14 3 13 6
-2 20 6 20 35 0 17 -13 27 -17 21 -9 -9 14 -13 32 -17 83 -1 9 -1 17 -2 17 0
0 -6 -4 -14 -9z m5 -29 c-3 -3 -1 -11 5 -18 6 -8 6 -14 0 -18 -5 -4 -12 -2
-16 4 -4 6 -12 7 -18 3 -7 -3 -4 3 6 14 9 11 14 23 10 28 -5 4 -2 5 5 1 7 -5
11 -11 8 -14z"/>
<path d="M7140 2519 c0 -5 5 -7 10 -4 6 3 10 8 10 11 0 2 -4 4 -10 4 -5 0 -10
-5 -10 -11z"/>
<path d="M7130 2489 c0 -5 5 -7 10 -4 6 3 10 8 10 11 0 2 -4 4 -10 4 -5 0 -10
-5 -10 -11z"/>
<path d="M7130 2459 c0 -5 5 -7 10 -4 6 3 10 8 10 11 0 2 -4 4 -10 4 -5 0 -10
-5 -10 -11z"/>
<path d="M3076 2431 c-3 -5 1 -11 9 -15 8 -3 15 -1 15 4 0 13 -18 22 -24 11z"/>
<path d="M3117 2422 c-22 -24 -21 -29 2 -41 16 -9 18 -7 17 24 0 19 -1 35 -2
35 0 0 -8 -8 -17 -18z"/>
<path d="M3075 2400 c3 -5 8 -10 11 -10 2 0 4 5 4 10 0 6 -5 10 -11 10 -5 0
-7 -4 -4 -10z"/>
<path d="M6752 2279 c2 -10 -5 -13 -22 -12 l-25 3 25 -15 c29 -17 52 -20 30
-4 -13 9 -12 10 2 5 10 -3 20 -1 23 4 4 6 12 10 18 10 8 0 8 -3 -2 -9 -24 -15
4 -20 29 -4 14 8 17 12 8 9 -9 -3 -22 2 -29 10 -9 11 -14 12 -20 3 -6 -10 -11
-10 -24 1 -14 11 -16 11 -13 -1z"/>
<path d="M6710 2240 c0 -5 5 -10 10 -10 6 0 10 5 10 10 0 6 -4 10 -10 10 -5 0
-10 -4 -10 -10z"/>
<path d="M6775 2240 c-4 -6 -12 -9 -19 -7 -6 3 -19 -1 -29 -8 -16 -11 -15 -13
4 -31 11 -10 20 -14 19 -9 -5 24 1 33 23 33 44 2 71 9 75 20 4 14 -7 15 -28 2
-9 -5 -19 -5 -26 1 -8 7 -15 6 -19 -1z"/>
<path d="M6795 2206 c-13 -9 -13 -14 -3 -28 12 -15 16 -15 38 -2 l25 14 -27
-4 c-15 -3 -31 0 -34 6 -4 7 -2 8 4 4 7 -4 12 -1 12 6 0 10 2 10 8 1 4 -7 13
-9 21 -4 9 6 7 10 -8 14 -11 2 -27 0 -36 -7z"/>
<path d="M6550 2121 c1 -13 59 -75 60 -63 0 6 -8 20 -18 30 -10 10 -17 23 -15
28 2 6 -3 11 -12 11 -8 0 -15 -3 -15 -6z"/>
<path d="M6590 2116 c0 -8 13 -27 28 -44 21 -23 34 -29 54 -25 23 4 25 8 18
38 -4 19 -4 36 1 39 5 2 4 3 -3 2 -7 -1 -12 -15 -13 -31 0 -34 -14 -41 -40
-20 -11 8 -14 15 -7 15 6 0 12 4 12 9 0 5 -8 8 -17 7 -10 0 -17 5 -15 12 1 6
-2 12 -8 12 -5 0 -10 -6 -10 -14z"/>
<path d="M6583 2029 c-2 -20 -1 -20 23 -5 14 10 24 12 24 6 0 -6 4 -9 9 -5 5
3 12 -4 16 -15 8 -26 21 -26 35 0 11 21 4 28 -30 29 -8 0 -29 3 -45 5 -26 4
-31 2 -32 -15z m107 -3 c0 -3 -4 -8 -10 -11 -5 -3 -10 -1 -10 4 0 6 5 11 10
11 6 0 10 -2 10 -4z"/>
<path d="M4555 700 c-3 -5 -1 -10 4 -10 6 0 11 5 11 10 0 6 -2 10 -4 10 -3 0
-8 -4 -11 -10z"/>
<path d="M4636 627 c3 -10 9 -15 12 -12 3 3 0 11 -7 18 -10 9 -11 8 -5 -6z"/>
<path d="M4745 560 c-3 -6 1 -7 9 -4 18 7 21 14 7 14 -6 0 -13 -4 -16 -10z"/>
<path d="M4786 562 c-3 -5 1 -9 9 -9 8 0 12 4 9 9 -3 4 -7 8 -9 8 -2 0 -6 -4
-9 -8z"/>
<path d="M4815 460 c-3 -5 -1 -10 4 -10 6 0 11 5 11 10 0 6 -2 10 -4 10 -3 0
-8 -4 -11 -10z"/>
<path d="M5055 410 c-4 -6 -10 -8 -15 -5 -5 3 -11 1 -14 -4 -8 -13 22 -7 36 7
7 7 9 12 6 12 -4 0 -10 -5 -13 -10z"/>
<path d="M5110 395 c5 -7 7 -14 4 -18 -3 -3 1 -4 10 -3 8 1 19 6 23 10 4 4 1
6 -7 4 -8 -1 -14 2 -13 8 1 6 -5 11 -12 11 -10 0 -12 -4 -5 -12z"/>
<path d="M4855 391 c-8 -14 35 -35 47 -23 6 6 5 12 -3 17 -8 5 -10 4 -5 -3 8
-14 4 -15 -18 -6 -9 3 -13 10 -10 15 3 5 3 9 0 9 -3 0 -7 -4 -11 -9z"/>
<path d="M5070 396 c0 -2 8 -10 18 -17 15 -13 16 -12 3 4 -13 16 -21 21 -21
13z"/>
<path d="M4950 381 c0 -6 4 -13 10 -16 6 -3 7 1 4 9 -7 18 -14 21 -14 7z"/>
<path d="M5001 360 c-13 -11 -18 -20 -13 -20 6 0 14 5 17 10 4 6 10 8 14 6 4
-3 8 1 8 9 0 8 -1 15 -1 15 -1 -1 -12 -10 -25 -20z"/>
<path d="M4924 359 c-3 -6 -1 -16 5 -22 9 -9 10 -7 5 7 -6 15 -4 17 6 11 9 -5
11 -4 6 3 -9 15 -13 15 -22 1z"/>
<path d="M4853 337 c-3 -6 -1 -7 5 -3 5 3 12 1 14 -6 3 -8 6 -7 10 3 7 17 -19
22 -29 6z"/>
<path d="M4906 315 c10 -8 23 -15 28 -15 6 0 1 7 -10 15 -10 8 -23 15 -28 15
-6 0 -1 -7 10 -15z"/>
<path d="M4950 321 c0 -6 4 -13 10 -16 6 -3 7 1 4 9 -7 18 -14 21 -14 7z"/>
</g>
</svg>
